<svg width="448" height="47" viewBox="0 0 448 47" fill="none" xmlns="http://www.w3.org/2000/svg">
<path d="M0 0.934021H13.7798C22.3845 0.934021 26.2503 5.85697 26.2503 12.0886C26.2503 16.7622 24.6291 20.1896 19.8904 21.8721C25.6268 23.0561 28.682 27.0443 28.682 33.3382C28.682 40.5669 24.7538 45.8014 15.0892 45.8014H0V0.934021ZM14.7151 20.8751C21.1998 20.8751 23.5692 17.1361 23.5692 12.0886C23.5692 7.1656 20.888 3.30202 13.5304 3.30202H2.68115V20.8751H14.7151ZM14.7775 43.4334C23.1327 43.4334 26.0009 39.2582 26.0009 33.3382C26.0009 26.9197 22.4468 23.2431 14.5904 23.2431H2.68115V43.4334H14.7775Z" fill="#808080"/>
<path d="M54.3702 0.37439H55.1808L73.3877 45.8026H70.6442L65.8431 33.7757H43.708L38.9692 45.8026H36.2881L54.3702 0.37439ZM64.9078 31.4077L56.1161 9.34787C55.4302 7.78997 54.8691 5.42197 54.8067 5.23502C54.7444 5.42197 54.0585 7.72766 53.4973 9.28555L44.7056 31.4077H64.9078Z" fill="#808080"/>
<path d="M88.2895 9.0986C87.4165 7.97692 86.2318 6.10744 86.2318 6.10744C86.2318 6.10744 86.4189 8.16387 86.4189 9.4725V45.7403H83.9248V0.37439H84.7354L113.48 37.5769C114.353 38.6986 115.537 40.5681 115.537 40.5681C115.537 40.5681 115.35 38.5117 115.35 37.203V0.935232H117.844V46.3635H117.034L88.2895 9.0986Z" fill="#808080"/>
<path d="M130.19 23.3689C130.19 9.72176 140.479 0.37439 153.198 0.37439C161.055 0.37439 167.228 3.42787 171.031 8.91166L168.974 10.4072C165.669 5.73355 160.307 2.80471 153.198 2.80471C141.663 2.80471 132.996 11.5912 132.996 23.3066C132.996 35.022 141.663 43.8085 153.198 43.8085C160.12 43.8085 165.918 40.8797 169.535 35.8321L171.592 37.2654C167.602 42.9984 161.055 46.2388 153.261 46.2388C140.479 46.3012 130.19 37.0161 130.19 23.3689Z" fill="#808080"/>
<path d="M179.448 23.3689C179.448 9.72176 189.736 0.37439 202.456 0.37439C215.114 0.37439 225.464 9.65945 225.464 23.3689C225.464 37.0161 215.176 46.3012 202.456 46.3012C189.736 46.3012 179.448 37.0161 179.448 23.3689ZM222.596 23.3689C222.596 11.5912 213.929 2.86702 202.394 2.86702C190.859 2.86702 182.192 11.6536 182.192 23.3689C182.192 35.0843 190.859 43.8708 202.394 43.8708C213.991 43.8708 222.596 35.0843 222.596 23.3689Z" fill="#808080"/>
<path d="M366.256 25.3007C364.573 23.2443 362.266 21.8733 359.46 21.1879C358.711 21.0009 358.462 20.7517 358.4 20.5647C363.014 18.3213 365.321 15.1432 365.321 11.0927C365.321 3.98871 359.647 0.37439 348.423 0.37439C344.495 0.37439 340.941 0.499021 338.01 0.623653H335.142C333.646 0.748285 332.96 1.24681 332.96 2.05692C332.96 2.49313 333.209 3.05397 334.394 3.24092C335.08 3.30323 335.703 3.42786 336.327 3.49018C337.699 3.80176 338.509 4.54955 338.759 5.73355C338.821 5.98281 338.883 6.85524 338.883 9.65945V45.1172C338.883 45.678 339.195 45.9896 339.819 46.0519C341.44 46.1142 342.687 46.1142 343.498 46.1142C347.488 46.1765 349.92 46.2388 350.294 46.2388C355.407 46.2388 359.584 45.3041 362.764 43.4969C366.693 41.1913 368.688 37.5769 368.688 32.7786C368.75 29.9121 367.877 27.3571 366.256 25.3007ZM344.994 4.92344C344.994 4.05102 345.243 3.5525 345.805 3.36555C346.428 3.11629 347.426 2.99165 348.797 2.99165C351.79 2.99165 354.16 3.73944 355.843 5.23502C357.714 6.7306 358.711 9.03629 358.711 11.9028C358.711 15.2679 357.527 17.6359 355.157 18.9445C353.411 19.9416 350.543 20.5024 346.74 20.5024C345.617 20.5024 345.306 20.3155 345.181 20.2531C345.056 20.1285 344.932 19.8169 344.932 18.8199V4.92344H344.994ZM351.541 43.6839C348.673 43.6839 346.802 42.8115 345.867 41.1913C345.243 40.0073 344.932 37.7639 344.932 34.6481V24.4906C344.932 23.6805 345.306 23.2443 346.054 23.0573C346.241 23.0573 346.802 22.995 348.61 22.995C352.601 22.995 355.843 23.8675 358.15 25.6746C360.644 27.6064 361.954 30.5352 361.954 34.3988C362.016 40.6927 358.587 43.6839 351.541 43.6839Z" fill="#0073AE"/>
<path d="M281.644 7.60223C282.018 10.8427 282.143 11.4658 282.143 11.5281C282.143 12.2136 281.769 12.5875 281.083 12.5875C280.584 12.5875 280.148 12.3382 279.961 11.902C279.961 11.902 279.961 11.8397 279.898 11.8397C279.898 11.8397 279.399 10.0949 278.464 8.35002C276.407 4.73571 272.416 2.92855 266.742 2.92855C261.13 2.92855 256.703 4.67339 253.461 8.03844C250.281 11.4658 248.597 16.0149 248.597 21.6233C248.597 28.1041 250.219 33.401 253.399 37.3892C256.828 41.7513 261.754 43.9324 268.051 43.9324C271.917 43.9324 274.224 43.3092 275.097 42.0629C275.347 41.6267 275.721 40.1934 275.721 35.8313C275.721 34.1488 275.658 33.0271 275.596 32.5286C275.409 31.2199 274.91 30.4098 274.162 30.0982C273.725 29.9113 272.79 29.7243 271.231 29.662L269.548 29.5374C268.363 29.4128 268.114 28.8519 268.114 28.4157C268.114 27.8549 268.425 27.481 269.049 27.481C269.111 27.481 270.171 27.5433 272.042 27.5433C272.977 27.5433 274.474 27.5433 276.344 27.481H280.709C281.27 27.481 281.582 27.7926 281.582 28.3534V42.4368C281.582 43.9324 281.457 44.3062 280.272 44.5555C278.464 44.9917 276.656 45.3656 274.848 45.7395C272.229 46.238 269.922 46.4873 267.802 46.4873C259.26 46.4873 252.463 43.9947 247.6 39.134C243.547 35.0835 241.489 30.0359 241.489 24.0536C241.489 17.822 243.485 12.5252 247.475 8.28771C252.339 3.11549 259.447 0.49823 268.488 0.49823C271.044 0.49823 273.85 0.809809 276.905 1.49528C277.716 1.61991 278.838 1.80686 280.397 2.05613C280.709 2.11844 281.145 2.3677 281.27 3.11549V4.36181C281.395 5.29655 281.519 6.35592 281.644 7.60223Z" fill="#0073AE"/>
<path d="M329.967 44.0575C330.03 44.8053 330.03 45.3661 330.03 45.8023C330.03 46.5501 329.593 46.924 328.845 46.924C328.533 46.924 328.284 46.7994 328.097 46.5501C327.536 45.8646 326.725 44.8676 325.665 43.559C324.293 42.0011 322.298 39.6954 319.679 36.7042L303.966 18.8819C302.283 16.8878 299.727 13.8966 296.359 10.033C296.172 10.9678 296.11 12.2764 296.11 14.0213V45.0545C296.11 45.8646 294.676 45.9893 293.616 45.9893C293.055 45.9893 292.681 45.6777 292.681 45.0545L292.805 9.28525C292.805 7.54041 292.556 6.23178 292.057 5.42167C291.496 4.42462 290.436 3.73915 288.877 3.36525L286.508 2.92904C285.947 2.74209 285.697 2.3682 285.697 1.86967C285.697 1.24651 286.009 0.87262 286.633 0.87262H295.237C296.921 0.87262 297.357 1.05957 297.482 1.24651C298.292 2.24357 299.29 3.5522 300.537 5.17241C302.345 7.54041 305.151 11.0924 308.83 15.6415C312.633 19.9413 318.495 26.4844 326.289 34.9594C326.413 34.4608 326.476 33.6507 326.476 32.5291V1.55809C326.476 0.87262 327.349 0.87262 328.907 0.87262C329.469 0.87262 329.843 1.1842 329.843 1.80736L329.78 10.3446V34.2739C329.78 37.7013 329.78 40.5055 329.843 42.4996C329.905 42.8112 329.905 43.372 329.967 44.0575Z" fill="#0073AE"/>
<path fill-rule="evenodd" clip-rule="evenodd" d="M433.41 23.4931L433.347 23.1815L433.597 22.9322L433.971 23.0569C433.971 23.1192 434.033 23.1815 434.096 23.3061C433.846 23.3061 433.659 23.3684 433.41 23.4931ZM434.407 21.8729C434.47 21.9975 434.594 22.1221 434.657 22.1844H434.532L434.283 21.9352L434.407 21.8729ZM402.358 11.4661C402.483 11.4038 402.545 11.4038 402.608 11.4661C402.545 11.5284 402.483 11.4661 402.358 11.4661ZM392.818 26.4219C392.881 26.4842 392.943 26.5465 392.943 26.6089L392.756 26.7335C392.756 26.7958 392.756 26.7958 392.756 26.8581C392.694 26.8581 392.631 26.9204 392.569 26.9204C392.569 26.7958 392.631 26.6089 392.818 26.4219ZM393.255 26.2973L393.068 26.1726C393.13 26.1103 393.13 26.1726 393.193 26.235L393.255 26.2973ZM413.145 7.66485C413.083 7.72716 413.021 7.66485 413.021 7.66485C413.083 7.66485 413.083 7.66485 413.145 7.66485ZM405.85 11.9023V12.027C405.725 11.9646 405.663 11.9023 405.538 11.84C405.476 11.84 405.414 11.9023 405.351 11.9023C405.414 11.84 405.476 11.7777 405.601 11.7154L405.663 11.84C405.663 11.9023 405.725 11.9646 405.788 11.9023H405.85ZM406.287 11.2792C406.349 11.3415 406.411 11.4038 406.411 11.4661C406.349 11.5907 406.287 11.6531 406.099 11.7154C406.162 11.5284 406.224 11.4038 406.287 11.2792ZM403.418 12.5878C403.481 12.6501 403.481 12.7124 403.543 12.7124C403.605 12.6501 403.605 12.6501 403.668 12.6501C403.543 12.7124 403.418 12.7747 403.356 12.7124L403.418 12.5878ZM430.729 13.024C430.666 12.9617 430.666 12.8994 430.604 12.8371L430.729 12.7747C430.853 12.7747 430.916 12.8994 430.916 12.9617C430.853 12.9617 430.791 12.9617 430.729 13.024ZM404.603 17.8223L404.915 18.1962C404.852 18.3209 404.79 18.4455 404.728 18.5701C404.665 18.7571 404.291 18.6947 404.167 18.6947C404.042 18.6947 403.73 18.6947 403.605 18.8194C403.668 18.3832 403.855 18.3832 404.229 18.3209C404.291 18.3209 404.603 17.8846 404.603 17.8223ZM429.793 36.704C429.793 36.7663 429.731 36.8287 429.731 36.8287C429.606 36.891 429.295 36.891 429.232 36.8287C429.107 36.7663 429.107 36.704 429.107 36.5794C429.107 36.4548 429.107 36.4548 429.107 36.3924C428.92 36.1432 429.357 35.9562 429.544 35.9562C429.606 35.9562 429.731 35.9562 429.856 36.0185C429.669 36.1432 429.482 36.2055 429.606 36.4548C429.544 36.5171 429.669 36.5794 429.793 36.704ZM426.738 12.4632C426.8 12.3385 426.738 12.3385 426.738 12.3385C427.112 12.3385 427.424 12.3385 427.736 12.4632C427.673 12.5255 427.549 12.4632 427.424 12.4632C427.237 12.4632 426.988 12.4632 426.738 12.4632ZM423.059 11.7154C422.935 11.6531 422.81 11.6531 422.748 11.7154H422.56L422.623 11.5907C422.498 11.6531 422.498 11.5907 422.436 11.5907C422.249 11.4661 422.062 11.3415 421.937 11.3415C422.373 11.3415 422.623 11.4661 423.059 11.7154ZM423.433 11.6531C423.496 11.7154 423.558 11.7777 423.683 11.7777L423.62 11.9023C423.496 11.9023 423.371 11.84 423.246 11.7777C423.309 11.7777 423.371 11.7154 423.433 11.6531ZM432.038 15.3297C432.038 15.2674 432.038 15.2051 432.1 15.2051C433.722 16.0152 432.911 16.3891 432.849 16.2021C432.724 15.8905 432.287 15.392 431.913 15.4543C432.038 15.4543 432.1 15.392 432.038 15.3297ZM431.415 15.2051C431.477 15.2674 431.539 15.392 431.664 15.4543C431.726 15.5166 431.789 15.579 431.726 15.6413C431.851 15.579 431.789 15.7659 431.789 15.7659C431.539 15.7659 431.414 15.579 431.352 15.579L431.415 15.2051ZM430.542 15.0804H430.791C431.04 15.1427 430.978 15.2051 431.04 15.2051C431.103 15.0181 431.04 15.0804 431.04 15.0181C431.227 15.0181 431.165 15.0181 431.227 15.2674C431.29 15.2674 431.29 15.4543 431.29 15.4543L431.165 15.392C431.165 15.392 430.791 15.3297 430.853 15.4543C430.729 15.5166 430.791 15.4543 430.729 15.4543C430.604 15.392 430.542 15.3297 430.542 15.1427C430.479 15.2051 430.542 15.1427 430.542 15.0804ZM395.25 22.9945C395.313 22.9945 395.5 23.1192 395.811 23.1192C395.5 23.4308 395.375 23.3684 395.25 22.9945ZM396.061 22.3091C395.998 22.3714 395.687 22.3091 395.624 22.2467C395.5 22.0598 395.562 21.9975 395.437 21.9975C395.375 21.9975 395.375 21.7482 395.375 21.6859C395.437 21.6859 395.437 21.7482 395.437 21.8105C395.562 22.0598 395.874 22.1221 396.123 22.1221C396.185 22.3714 396.123 22.1844 396.061 22.3091ZM397.433 21.9352C397.433 22.1221 397.183 22.2467 396.996 22.1844C396.871 22.1221 396.809 21.9975 396.809 21.8729C397.058 21.9352 397.058 21.7482 397.183 21.7482C397.183 21.5613 397.245 21.6236 397.37 21.6859C397.557 21.6859 397.62 21.9352 397.433 21.9352ZM394.315 32.6535C393.941 32.5912 393.38 33.0274 393.504 32.3419C393.754 32.3419 393.754 32.2796 393.754 32.0303C393.754 31.968 393.878 32.0926 393.878 31.9057C393.816 31.5941 394.19 31.7188 394.315 31.7811C394.564 31.9057 394.627 32.0303 394.876 31.9057C395.063 31.7811 395.063 31.968 395.063 31.7188C395.063 31.5941 395.313 31.6564 395.375 31.6564C395.687 31.6564 395.562 31.7188 395.811 31.8434C395.874 31.9057 396.373 31.8434 396.373 31.968C396.373 32.0303 395.5 32.4665 395.313 32.5289C395.001 32.5912 394.689 32.6535 394.315 32.6535ZM395.5 35.9562C395.437 35.8939 395.5 35.8939 395.375 35.8316C395.5 35.8316 395.624 35.707 395.624 35.5823C395.687 35.52 395.749 35.4577 395.936 35.4577C395.936 35.707 395.936 35.5823 396.123 35.707C395.936 35.7693 395.624 35.7693 395.5 35.9562ZM395.998 36.2678C395.998 36.3301 395.936 36.3301 395.936 36.3924C395.624 36.3924 395.313 36.4548 395.063 36.3301C395.125 36.3301 395.188 36.2678 395.25 36.2055C395.313 36.1432 395.313 36.1432 395.375 36.0809C395.562 36.3924 395.998 36.2055 395.998 36.2678ZM396.061 38.4489C395.936 38.5735 395.624 38.2619 395.5 38.3866C395.5 38.3866 395.375 38.3242 395.25 38.3866C395.126 38.5112 394.689 38.2619 394.627 38.1996C394.689 38.2619 394.876 38.1996 394.938 38.1996C395.063 38.1996 395.126 38.1373 395.313 38.1373C395.313 38.1373 395.687 38.1996 395.687 38.075C395.624 37.9503 395.562 37.8257 395.749 37.888C395.874 37.9503 396.061 38.1373 396.248 38.1996C396.248 38.3242 396.185 38.3242 396.061 38.4489ZM397.183 37.3272C397.183 37.3895 396.996 37.3895 396.934 37.3895C396.56 37.4518 396.31 37.3272 396.373 37.6388C396.373 37.5764 396.185 37.7634 396.248 37.5764C396.185 37.4518 396.56 37.5764 396.373 37.2649C396.185 37.0156 395.749 37.0156 395.5 37.0779C395.313 37.1402 394.814 37.2649 394.814 36.9533C394.814 36.6417 394.502 37.0156 394.564 36.704C394.564 36.5794 395.001 36.3924 395.001 36.3924C395.063 36.4548 395.25 36.4548 395.188 36.5171C395.125 36.5794 395.063 36.5171 395.001 36.704C394.938 36.8287 395.063 36.891 395.063 36.9533C395.063 37.0156 395.375 36.891 395.437 36.891C395.562 36.891 395.998 36.7663 395.749 36.6417C395.687 36.5794 395.687 36.5171 395.562 36.4548C395.687 36.4548 395.562 36.3924 395.749 36.3924C395.936 36.3924 396.061 36.5171 396.248 36.4548C396.31 36.4548 396.435 36.3924 396.435 36.4548C396.185 36.4548 396.248 37.0156 396.497 36.8287C396.622 36.7663 396.996 37.0156 396.934 36.7663C396.871 36.4548 397.121 37.0156 397.183 37.0156C397.183 37.0779 397.183 37.2025 397.183 37.3272ZM396.747 36.2678C396.747 36.2055 396.809 36.1432 396.809 36.0809C396.871 36.0809 397.058 36.0809 396.996 36.2055C397.183 36.1432 397.37 36.3301 397.495 36.3924C397.245 36.3924 397.058 36.3301 396.747 36.2678ZM397.744 36.5171C397.682 36.5794 397.682 36.5794 397.62 36.5171C397.682 36.5794 397.62 36.6417 397.557 36.6417C397.495 36.704 397.37 36.6417 397.37 36.4548C397.433 36.4548 397.682 36.4548 397.682 36.4548C397.682 36.4548 397.807 36.3924 397.807 36.4548C397.869 36.4548 397.807 36.4548 397.744 36.5171ZM399.615 18.6324C399.241 18.6947 399.74 17.947 399.74 18.1339C399.74 18.1962 399.677 18.6324 399.615 18.6324ZM401.797 36.5171C401.548 36.5171 401.548 36.7663 401.672 36.7663C401.797 36.7663 401.797 36.891 401.797 36.9533C401.735 37.0156 401.672 37.0156 401.672 36.9533C401.672 37.0156 401.423 37.1402 401.548 36.9533C401.61 36.891 401.61 36.891 401.548 36.8287C401.111 36.3924 401.797 36.5171 401.797 36.5171ZM400.987 34.4607C400.924 34.2114 401.797 34.2114 401.672 33.9621C401.672 33.8998 401.61 33.8998 401.548 33.8998L401.485 33.7752C401.423 33.7752 401.361 33.8375 401.298 33.8375C401.423 33.5882 401.922 33.9621 401.922 34.1491C401.922 34.2114 401.984 34.2737 401.984 34.336C401.86 34.3983 401.049 34.7722 400.987 34.4607ZM411.462 32.0303C411.337 32.0303 411.649 32.0927 411.649 32.155C411.586 32.155 411.587 32.2796 411.462 32.155C411.212 32.0927 411.15 32.155 411.15 31.9057L411.462 32.0303ZM410.464 9.40969C410.589 9.34737 410.714 9.34737 410.776 9.34737C410.776 9.40969 410.527 9.472 410.527 9.59664C410.527 9.72127 410.464 9.65895 410.339 9.59664C410.464 9.472 410.277 9.472 410.464 9.40969ZM409.342 31.2825C409.03 31.3449 409.092 31.2825 408.905 31.0956C408.905 31.0956 408.905 30.971 408.968 30.971C409.279 30.9086 409.529 30.8463 409.841 30.8463C410.402 30.8463 409.404 31.2202 409.342 31.2825ZM408.469 13.7095C408.656 13.7718 408.469 13.5849 408.469 13.4602C408.469 13.3356 408.594 13.1486 408.594 13.1486C408.531 13.024 408.594 13.024 408.718 13.024C408.781 13.024 408.905 12.9617 408.905 13.024H409.092C408.968 13.2733 409.092 13.211 409.217 13.3979C409.279 13.4602 409.404 13.3979 409.467 13.4602C409.467 13.3356 409.529 13.3356 409.591 13.2733C409.591 13.2733 409.778 13.024 409.778 13.1486C409.841 13.211 409.529 13.4602 409.529 13.5225C409.279 13.9587 409.467 13.7095 409.03 13.7095C408.843 13.7095 408.656 13.7718 408.531 13.8341V13.7095H408.469ZM407.908 31.1579C408.282 31.1579 408.594 31.8434 408.531 32.2173C408.469 32.5289 408.157 32.155 408.032 32.155C407.97 32.0927 407.97 32.0927 407.908 32.0927C408.095 31.9057 407.783 32.0303 407.845 31.9057L407.721 31.7811H407.908C407.783 31.7188 407.783 31.5941 407.845 31.5318C407.908 31.4072 407.658 31.3449 407.658 31.2202C407.721 31.1579 407.97 31.2202 407.908 31.1579ZM406.162 14.8312C405.975 14.8935 406.1 14.8312 406.037 14.8935C405.912 14.8935 405.538 15.392 405.538 15.1427C405.538 14.8935 406.162 14.2703 406.224 14.3326C406.349 14.395 406.411 14.4573 406.536 14.2703C406.598 14.395 406.661 14.4573 406.785 14.5196C406.661 14.6442 406.411 14.7688 406.162 14.8312ZM405.975 26.3596C406.037 26.3596 406.162 26.3596 406.099 26.235H406.224C406.474 26.1726 406.598 26.048 406.723 25.9857C406.723 25.9857 407.159 25.7364 406.91 25.7364C406.785 25.7364 406.91 25.6741 406.91 25.6741C406.661 25.7364 407.222 25.1133 407.284 25.3625C407.284 25.4249 407.035 25.5495 407.097 25.6741C407.097 25.7364 407.347 25.6741 407.347 25.7988C407.347 25.9234 407.409 25.7988 407.409 25.9234C407.471 25.9234 407.658 25.9234 407.658 25.9857L407.035 26.6089C406.91 26.6712 406.661 26.5465 406.598 26.4842C406.349 26.1726 406.411 26.2973 406.099 26.3596H405.975ZM402.982 29.2884C403.231 28.9769 403.418 28.6653 403.668 28.3537C403.668 28.416 403.855 28.9145 403.855 28.9769C403.668 29.1638 403.418 29.2884 403.231 29.4754C403.169 29.5377 402.92 29.8493 402.857 29.8493C402.795 29.787 402.795 29.787 402.732 29.8493C402.732 29.6 402.857 29.4754 402.982 29.2884ZM403.169 34.1491L403.107 34.0244C402.857 34.0244 402.67 33.7752 402.67 33.4636C403.107 33.2766 402.92 33.2766 403.231 33.4013C403.231 33.4013 403.543 33.5882 403.543 33.4636C403.855 33.4013 404.104 33.5882 404.291 33.8375C403.917 33.9621 403.481 34.0868 403.169 34.1491ZM404.229 32.5912C403.98 32.4042 403.543 32.7158 403.356 32.4665C403.231 32.3419 403.73 32.3419 403.98 32.3419C404.042 32.3419 404.167 32.2173 404.354 32.2173C404.416 32.2173 404.541 32.2796 404.603 32.2796C404.665 32.2796 404.728 32.3419 404.728 32.4042C404.728 32.5912 404.416 32.7158 404.229 32.5912ZM404.665 31.5318C404.603 31.5318 404.541 31.5318 404.541 31.4695C404.541 31.4695 404.416 31.4695 404.354 31.4072C404.291 31.3449 404.291 31.2825 404.291 31.1579C404.229 31.0956 404.291 30.971 404.416 31.0333C404.603 31.0956 404.541 31.1579 404.728 31.2825C404.79 31.2825 404.977 31.4072 404.915 31.4695C404.915 31.5318 405.102 31.4695 405.039 31.5318C405.039 31.5941 405.289 31.5941 405.289 31.5941C405.289 31.5941 404.915 31.5941 404.728 31.5941C404.728 31.6564 404.665 31.6564 404.665 31.5318ZM405.164 31.9057C405.164 31.8434 405.164 31.7811 405.102 31.7811C405.164 31.7811 405.663 31.6564 405.663 31.8434C405.601 32.0926 405.164 31.968 405.164 31.9057ZM406.536 33.2143C406.474 33.2143 406.162 33.0897 406.099 33.0274C405.975 32.9028 405.85 32.9651 405.788 32.8404C405.725 32.5912 405.663 32.7781 405.538 32.6535C405.476 32.5912 405.164 32.4042 405.351 32.3419C405.227 32.0303 404.915 32.0927 405.601 32.0927C405.663 32.0927 405.601 31.8434 405.912 31.9057C406.099 31.968 406.099 32.2173 406.224 32.2796C406.474 32.4665 406.598 32.5912 406.598 32.9028C406.661 33.0897 406.723 33.2767 406.536 33.2143ZM409.654 34.2114C409.529 34.0868 409.217 34.1491 408.968 34.0244C408.594 33.7752 407.845 33.8998 407.721 33.5882C407.596 33.4013 407.596 33.2143 407.471 33.0274C407.347 32.8404 406.848 32.155 406.848 32.0303C407.035 32.0926 406.91 32.2796 407.222 32.2173C407.284 32.2173 407.284 32.155 407.409 32.155C407.658 32.3419 407.845 32.3419 408.032 32.5912C408.282 32.9651 408.905 33.2143 409.404 33.2766C409.591 33.2766 410.028 33.4013 410.028 33.6505C410.028 33.8375 409.965 33.8375 410.09 34.0244C410.152 34.2737 409.841 34.336 409.654 34.2114ZM412.834 35.0215C412.834 35.2708 412.646 35.2084 412.584 35.2084C411.774 34.9592 410.402 34.5853 410.464 33.4013C410.464 33.2143 409.841 33.152 409.903 33.0274C409.903 32.9028 411.025 32.7781 411.15 32.9028C411.587 33.152 411.587 33.0274 412.085 33.0274C412.335 33.0897 412.522 33.2766 412.584 33.5882C412.646 33.8998 412.709 33.9621 412.709 34.2737C412.834 34.4606 412.834 34.7722 412.834 35.0215ZM414.829 29.7246L414.642 29.9116C414.579 29.9739 414.455 29.787 414.455 29.9739C414.33 29.9116 414.392 29.787 414.205 29.9116C414.205 29.8493 414.018 29.787 414.081 29.7246C414.081 29.6623 413.956 29.6 413.956 29.5377C413.956 29.4754 414.018 29.3508 414.081 29.2884C414.143 29.2261 414.205 29.5377 414.392 29.6C414.517 29.6623 414.579 29.7246 414.704 29.7246C414.829 29.6 414.891 29.787 414.891 29.5377C414.891 29.3508 415.078 29.4131 415.078 29.5377C414.954 29.6 414.891 29.6623 414.829 29.7246ZM425.491 30.4101C425.553 30.6594 425.616 30.7217 425.865 30.7217C425.865 31.0956 425.865 30.971 425.678 31.1579C425.553 31.3449 425.616 31.3449 425.366 31.4072C425.179 31.4695 425.055 31.4072 424.868 31.5318C424.618 31.6564 425.055 31.0956 425.179 30.9086C425.366 30.784 425.491 30.5971 425.491 30.4101ZM424.618 30.6594C424.493 30.6594 424.618 30.5348 424.618 30.4724C424.618 30.3478 424.743 30.3478 424.743 30.2855C424.868 30.4101 424.618 30.6594 424.618 30.6594ZM425.117 27.4813L425.179 27.6059C425.055 27.7305 425.055 27.7305 424.93 27.6682C425.055 27.6059 424.992 27.4813 424.992 27.3566C425.055 27.419 425.055 27.4813 425.117 27.4813ZM424.93 26.7958C424.992 26.9204 425.055 27.1074 424.992 27.1074C424.93 27.0451 424.868 27.0451 424.805 27.0451C424.618 27.0451 424.431 27.1074 424.431 26.8581C424.431 26.7958 424.493 26.7335 424.493 26.6712C424.556 26.5465 424.493 26.5465 424.68 26.4842C424.743 26.4842 424.992 26.3596 425.055 26.4219C424.868 26.4842 424.93 26.6712 424.93 26.7958ZM423.683 13.6472C423.932 13.8964 424.057 13.3979 424.057 13.3979C424.182 13.3979 424.743 13.3979 424.93 13.4602C424.743 13.5225 424.743 13.5225 424.618 13.6472C424.369 13.7718 424.306 13.8341 424.182 14.0834L424.057 14.0211C423.995 14.0211 423.683 13.8964 423.683 13.7718V13.6472ZM422.748 31.0333C423.059 30.7217 422.623 30.4101 423.371 30.6594C423.496 30.6594 423.683 30.784 423.808 30.7217C423.87 30.6594 423.87 30.784 423.87 30.8463C423.932 30.8463 424.182 31.0333 424.244 30.9086C424.244 30.9086 424.493 30.784 424.493 30.9086C424.493 30.9086 423.309 32.0303 423.184 32.0303C423.122 32.0303 422.685 31.1579 422.685 31.1579L422.748 31.0333ZM417.51 29.787C417.884 29.0392 418.071 29.1638 418.757 29.1638C418.944 29.1638 419.131 28.6653 419.318 28.9145C419.381 29.0392 419.879 28.7276 419.692 29.1638C419.63 29.3508 419.381 29.6623 419.193 29.4754C419.131 29.4131 419.069 29.3508 419.006 29.3508C418.944 29.6 418.944 29.4131 418.695 29.4754C418.321 29.5377 418.009 30.0985 417.635 29.9116C417.572 29.8493 417.759 29.787 417.759 29.6623C417.759 29.6623 417.635 29.6623 417.635 29.7246C417.51 30.0362 417.385 29.9116 417.448 30.0362C417.323 30.0985 417.448 29.8493 417.51 29.787ZM419.318 31.0333C419.256 30.971 419.069 30.9086 419.069 30.8463C419.193 30.784 419.256 30.8463 419.318 30.784C419.318 30.9086 419.256 30.9086 419.318 31.0333ZM419.131 31.1579C419.069 31.1579 419.069 31.0333 419.006 31.0333C419.131 31.0333 419.131 31.0956 419.131 31.1579ZM419.006 31.3449C419.006 31.4072 419.006 31.4695 418.944 31.5318C418.882 31.3449 418.882 31.3449 418.882 31.1579C418.819 31.1579 419.006 31.2825 419.006 31.3449ZM418.133 33.152C418.071 33.4013 418.009 33.5259 418.009 33.8375C418.009 34.0868 417.759 34.2737 417.572 34.336C417.323 34.3983 416.824 34.8345 416.699 34.7722C416.699 34.7722 416.699 34.6476 416.637 34.5853C416.575 34.3983 416.512 34.4606 416.575 34.2737L417.011 33.6505L416.949 33.5259C416.824 33.152 416.886 32.7781 416.824 32.4042C416.762 32.2173 416.824 32.2173 416.886 32.0303C416.886 31.968 416.949 32.0303 417.011 31.968C417.073 31.9057 417.136 31.9057 417.198 31.7811C417.261 31.9057 417.261 31.9057 417.385 31.9057C417.572 32.2796 417.884 32.4665 418.133 32.7781C418.133 32.8404 418.133 33.0274 418.133 33.152ZM417.759 32.2173C417.448 31.968 417.697 31.7811 417.697 31.9057C417.697 31.8434 417.759 31.9057 417.822 31.9057C417.822 31.968 417.822 32.0303 417.759 32.0303C417.759 32.0926 417.759 32.155 417.884 32.0927C418.009 32.0303 417.822 31.9057 418.133 31.9057L418.258 31.6564C418.508 31.7188 418.383 31.5318 418.508 31.5318C418.508 31.8434 418.695 31.6564 418.508 32.0927C418.383 32.6535 418.196 32.5912 417.759 32.2173ZM418.695 32.9028C418.695 32.5912 418.819 31.4695 419.256 31.5318C419.381 31.5318 419.318 32.0303 419.318 32.0927C419.193 32.3419 419.069 32.5289 418.882 32.7781C418.819 32.8404 418.695 33.2767 418.695 32.9028ZM419.755 33.339C419.505 33.5259 419.193 33.7129 418.882 33.7752C418.882 33.7129 418.882 33.5882 418.819 33.5882C418.757 33.5259 419.131 32.9028 419.256 32.7158C419.505 32.4042 420.004 32.2173 420.316 31.968C420.316 32.0303 420.253 32.0303 420.191 32.0927C420.129 32.155 420.066 32.2173 420.004 32.2796C420.066 32.3419 420.191 32.5912 420.066 32.6535C420.129 32.6535 420.129 32.6535 420.191 32.5912C420.253 32.6535 420.316 32.7158 420.378 32.7158C420.378 32.9028 419.942 33.2143 419.755 33.339ZM420.565 31.5941C420.503 31.6564 419.568 32.2173 419.568 32.155C419.505 32.155 419.692 31.968 419.63 31.8434C419.568 31.6564 419.568 31.7811 419.568 31.5318C419.568 31.3449 419.443 31.2202 419.63 31.0333C419.692 30.971 419.755 31.0333 419.817 31.0333C419.817 31.0956 419.817 31.1579 419.879 31.1579C419.879 31.3449 420.066 31.2825 420.129 31.4072C420.129 31.6564 420.939 31.3449 420.565 31.5941ZM420.066 10.9053C419.942 10.9053 419.568 11.0922 419.568 10.9676L419.63 10.843L419.568 10.656C419.443 10.656 419.318 10.7183 419.193 10.7183C419.131 10.7183 419.193 10.5937 419.256 10.5314C419.568 10.3444 420.378 10.0952 420.752 10.1575C420.44 10.1575 420.066 10.3444 419.817 10.5314C419.692 10.5937 419.692 10.5937 419.692 10.7183C419.817 10.7183 420.441 10.5937 420.503 10.5937C420.503 10.656 420.565 10.5314 420.628 10.5314C420.877 10.4691 420.752 10.5314 421.002 10.5314C421.002 10.5314 421.064 10.4067 421.064 10.4691C421.189 10.4067 421.5 10.4691 421.5 10.5314C421.625 10.4691 421.812 10.4067 421.937 10.4691C421.376 10.843 420.628 10.843 420.066 10.9053ZM421.5 32.7158C421.438 32.6535 421.688 32.6535 421.688 32.4042C421.688 32.2796 421.625 32.2173 421.625 32.0927C421.625 31.968 422.311 31.4695 422.311 31.5318C422.373 31.5941 422.623 32.0927 422.56 32.2173C422.436 32.4665 421.563 32.8404 421.5 32.7158ZM423.184 34.336C423.122 34.336 423.059 34.1491 422.935 34.2737C422.872 34.336 422.872 34.3983 422.872 34.4607C422.872 34.336 422.81 34.2737 422.748 34.1491C422.748 34.0868 422.748 34.2114 422.623 34.0868C422.685 34.0244 422.685 34.0244 422.685 33.9621C422.872 33.9621 422.935 34.1491 423.059 34.1491C423.246 34.2114 423.184 34.2114 423.184 34.336ZM424.93 34.336C424.805 34.2737 424.743 34.336 424.618 34.2114C424.618 34.1491 424.493 34.2114 424.493 34.2114C424.493 34.336 424.182 34.1491 424.182 34.1491C424.182 34.0244 424.182 33.8998 424.057 33.8375C424.244 33.8375 424.369 33.6505 424.618 33.7129C424.93 33.7752 424.992 33.7752 425.117 34.0244C425.179 34.2114 425.304 34.2114 425.366 34.336C425.491 34.4607 425.055 34.3983 424.93 34.336ZM425.99 31.968C425.803 31.968 425.678 31.968 425.553 32.0303C425.429 32.155 425.304 32.2173 425.117 32.2796C424.992 32.3419 425.055 32.4042 424.992 32.4665C424.93 32.7158 424.805 32.9651 424.556 32.9651C424.369 32.9651 423.995 32.5289 423.745 32.6535C423.496 32.7781 423.246 33.4636 422.935 33.2143C422.81 33.0897 422.748 33.4013 422.685 33.4013C422.436 33.4636 422.124 33.4636 421.875 33.5259C422.498 33.339 423.433 32.8404 423.995 32.4042C424.306 32.155 424.306 32.0927 424.618 32.0927C424.868 32.0927 425.927 31.7188 426.052 31.7811C426.052 31.8434 425.99 31.968 425.99 31.968ZM426.551 28.2914C426.426 28.2291 426.177 28.1668 426.177 28.1668C426.364 28.1668 426.551 28.1668 426.738 28.0421L426.863 28.1044C426.863 28.2914 426.676 28.1044 426.551 28.2914ZM427.05 26.3596C426.925 26.3596 426.8 26.4842 426.676 26.4842C426.613 26.4842 426.8 26.3596 426.676 26.3596C426.738 26.2973 426.613 26.1726 426.738 26.1726C426.8 26.1103 426.925 26.1103 426.925 26.1726C426.987 26.1726 427.175 26.3596 427.05 26.3596ZM428.92 18.3209C428.983 18.3832 428.92 18.4455 429.045 18.5078C428.983 18.5701 428.858 18.5078 428.796 18.4455L428.609 18.0716C428.796 18.1339 428.796 18.1962 428.92 18.3209ZM427.798 12.8371C427.86 12.8371 428.297 12.8994 428.297 12.8994C428.297 12.9617 428.172 12.9617 428.11 12.9617C428.047 12.9617 427.798 13.024 427.736 12.8994L427.798 12.8371ZM427.736 34.5853C427.736 34.523 427.362 34.4607 427.424 34.4607C427.611 34.3983 427.673 34.523 427.736 34.336C427.86 34.0868 427.798 34.1491 427.985 34.2114C427.985 34.2114 428.047 34.3983 428.11 34.4607C428.172 34.523 428.235 34.5853 428.235 34.6476C428.172 34.7099 427.736 34.6476 427.736 34.5853ZM428.546 18.944C428.297 18.8194 427.798 18.6324 427.549 18.6324L427.673 18.5078C427.86 18.4455 428.047 18.5078 428.047 18.6324C428.047 18.5701 428.047 18.4455 428.11 18.4455C428.047 18.3209 428.047 18.1339 428.235 18.0716C428.297 18.0716 428.297 18.1962 428.297 18.2585C428.422 18.5078 428.546 18.7571 428.671 18.944C428.609 18.944 428.671 19.0063 428.546 18.944ZM429.793 33.339C429.731 33.4013 429.606 33.4013 429.606 33.5259C429.606 33.7129 429.232 33.6505 429.107 33.7129C428.92 33.7752 428.671 33.5259 428.796 33.4636C428.733 33.4636 428.796 33.4013 428.858 33.339C428.858 33.2766 428.92 33.152 428.796 33.152C428.671 33.152 428.796 32.9028 429.045 32.9651C429.232 33.0274 429.357 33.0274 429.482 33.0897C429.669 33.0897 429.856 33.152 429.793 33.339ZM430.916 20.6889C430.978 20.6889 430.978 20.6265 431.165 20.6889C431.789 20.6889 431.789 20.6889 432.35 20.9381C432.537 21.0004 432.412 21.1251 432.662 21.1251C432.163 21.1874 431.913 21.0627 431.415 20.7512C431.29 20.6889 431.04 20.6889 430.916 20.6889ZM431.539 35.2084C431.477 35.2084 431.352 34.8969 431.415 34.9592C431.539 35.0838 431.602 34.8345 431.726 34.8969C431.789 34.9592 432.1 35.0215 432.1 34.8345C432.1 34.7722 432.1 34.7099 432.038 34.7099C432.038 34.523 432.911 34.4607 433.098 34.5853C432.724 34.7722 431.913 35.2708 431.539 35.2084ZM432.662 26.6712C432.537 26.5465 432.537 26.7335 432.474 26.7335C432.35 26.7958 432.225 26.7958 432.1 26.8581C432.163 26.8581 432.038 26.4842 431.789 26.5465C431.789 26.4219 431.913 26.4842 431.913 26.4219C431.913 26.3596 432.35 26.1103 432.474 26.1103C432.537 26.1103 432.724 26.1726 432.724 26.1103C432.724 26.048 433.036 25.9857 432.911 26.235C432.849 26.3596 432.662 26.3596 432.849 26.6089C432.911 26.6712 432.973 26.6712 433.036 26.7335C433.036 26.6089 432.724 26.7335 432.662 26.6712ZM434.594 34.7099C434.407 34.7099 434.345 34.8345 434.22 34.8345C434.22 34.8969 434.22 35.0215 434.283 35.0215C434.22 35.0838 434.158 35.2084 434.158 35.3331C434.158 35.4577 434.033 35.3331 433.971 35.2708C433.722 35.5823 433.971 35.6447 433.472 35.5823C433.41 35.5823 433.41 35.4577 433.41 35.3954C433.347 35.3954 433.347 35.3331 433.285 35.2708C433.534 35.2084 433.909 35.0838 433.909 34.7099C433.784 34.7099 433.784 34.5853 433.846 34.5853C433.909 34.5853 434.158 34.523 434.158 34.6476C434.158 34.5853 434.283 34.5853 434.283 34.6476C434.345 34.6476 434.47 34.5853 434.594 34.5853C434.532 34.5853 434.532 34.6476 434.47 34.6476C434.532 34.5853 434.594 34.5853 434.594 34.7099ZM435.031 28.0421C434.969 28.2291 435.031 28.1668 434.782 28.2291C434.47 28.416 434.158 28.603 433.846 28.7899C433.784 28.7276 433.784 28.603 433.722 28.5406C433.971 28.4783 433.784 28.4783 433.846 28.2914C433.846 28.2914 434.719 28.1668 434.47 27.9175C434.407 27.7929 434.283 27.7305 434.158 27.6682C434.407 27.5436 434.719 27.419 435.156 27.419C435.156 27.6682 435.031 27.9175 435.031 28.0421ZM436.278 33.8998C436.216 33.8998 436.153 33.8998 436.153 33.8998C436.34 33.4636 436.34 33.5259 436.029 33.2143C435.966 33.152 435.904 33.0897 435.966 33.0274C435.966 33.0274 436.153 33.0274 436.091 32.9028C436.278 33.2767 436.59 33.4636 436.964 33.339C436.964 33.5259 436.964 33.5882 437.213 33.6505C437.213 33.8998 437.4 33.8998 437.4 33.9621C437.4 34.0868 436.964 33.8998 436.902 33.8375C436.652 33.6505 436.777 33.8998 436.652 33.4636L436.527 33.4013C436.34 33.4636 436.278 33.7752 436.278 33.8998ZM437.463 35.6446C437.338 35.707 437.151 35.8316 436.964 35.8316C436.777 35.7693 436.59 35.9562 436.403 35.8939L436.465 35.7693C436.527 35.6446 436.59 35.52 436.527 35.4577C436.839 35.4577 436.964 35.3954 437.151 35.1461C437.338 34.9592 437.213 35.1461 437.276 35.2708C437.276 35.0838 437.213 35.0215 437.463 35.0215C437.463 35.0215 437.4 35.1461 437.4 35.2084C437.4 35.3331 437.525 35.4577 437.463 35.52C437.525 35.5823 437.587 35.5823 437.463 35.6446ZM438.772 33.4636C438.71 33.7129 438.71 33.6505 438.523 33.7752C438.273 33.8998 438.024 34.0244 437.774 33.8375C437.65 33.8375 437.899 33.5882 437.961 33.5882C438.086 33.5259 438.024 33.4636 438.024 33.4636C438.149 33.4013 438.149 33.5882 438.211 33.5259C438.149 33.7129 438.647 33.6505 438.647 33.6505C438.772 33.6505 438.647 33.4013 438.585 33.339C438.46 33.2766 438.398 33.2143 438.46 33.152C438.523 33.0274 438.647 33.2766 438.772 33.152C438.772 33.152 439.084 32.9028 439.084 33.0274C439.084 33.0274 438.834 33.2766 438.772 33.4636ZM439.52 33.6505C439.271 33.6505 439.396 33.8375 439.52 33.6505C439.52 33.5882 439.77 33.6505 439.77 33.6505C439.77 33.7129 439.52 33.7752 439.52 33.6505ZM428.546 27.3566L428.671 27.4813C428.609 27.6059 428.546 27.6059 428.546 27.8552L428.422 27.9175C428.297 27.6059 428.359 27.5436 428.546 27.3566ZM411.275 22.4337C411.088 22.4337 410.963 22.3091 410.838 22.1844H411.15C411.275 22.3091 411.275 22.3091 411.275 22.4337ZM409.404 18.944C409.654 18.6947 410.09 18.8817 410.277 19.0063L410.714 18.8817C410.277 19.1933 410.028 19.0686 409.716 19.2556L409.404 18.944ZM411.337 22.496L411.399 22.3714C411.586 22.4337 411.836 22.6206 411.961 22.7453C411.774 22.8076 411.586 22.7453 411.399 22.6206L411.337 22.496ZM411.212 21.1874C411.025 21.1251 410.901 21.1251 410.776 20.9381L410.714 20.8135C410.963 20.7512 411.15 20.8758 411.337 20.8758V21.0627L411.212 21.1874ZM411.586 20.0034C411.212 20.1903 410.963 20.0034 410.589 20.0034V19.8164L411.15 19.5672L411.524 19.7541L411.586 20.0034ZM409.529 15.3297L409.342 15.579L409.217 15.4543H409.092C409.03 15.7036 409.092 15.7659 409.279 15.8282C409.342 16.0775 409.342 16.3267 409.217 16.5137C409.342 16.7006 409.342 16.6383 409.467 16.7006L409.342 16.9499C408.968 16.9499 408.718 17.1369 408.407 17.0745L408.157 17.3238C407.97 17.1992 407.845 17.3238 407.658 17.1992L407.596 17.0745C407.596 16.9499 407.596 16.9499 407.783 16.8876L407.596 16.5137L407.97 16.1398L408.095 16.2021C408.344 16.2021 408.469 16.0152 408.781 16.0152C408.905 15.7036 408.905 15.5166 409.217 15.2674C409.404 15.3297 409.342 15.3297 409.529 15.3297C409.591 15.2674 409.591 15.2051 409.654 15.1427L409.903 15.2674C409.778 15.2674 409.654 15.3297 409.529 15.3297ZM410.09 23.5554C410.152 23.4931 410.152 23.4931 410.277 23.5554C410.339 23.4308 410.339 23.3061 410.402 23.1815C410.589 23.1815 410.838 23.2438 410.963 23.3684C410.838 23.4307 410.776 23.4308 410.776 23.5554C410.526 23.6177 410.339 23.6177 410.09 23.5554ZM412.522 27.2943C412.522 27.4813 412.397 27.4813 412.335 27.6059H412.21L412.085 27.419L412.272 27.0451L412.459 27.1074L412.522 27.2943ZM408.531 19.131L408.594 18.944C408.718 19.0063 408.905 19.1933 408.968 19.3179C408.843 19.3179 408.718 19.2556 408.531 19.131ZM413.332 22.1844L413.208 22.2467L412.958 21.8729L413.021 21.7482C413.145 21.8105 413.27 21.8105 413.332 21.8729V22.1844ZM416.512 19.131C416.201 19.131 415.951 19.2556 415.639 19.3802C415.577 19.0686 415.639 18.8194 415.826 18.5701C415.951 18.6324 415.951 18.6324 415.951 18.8194H416.138C416.45 18.944 416.45 18.6324 416.699 18.8817L416.512 19.131ZM414.891 17.5107L414.766 17.6977C414.455 17.8223 414.143 18.0093 413.831 18.0716L413.706 17.947V17.8223C414.018 17.76 414.205 17.8223 414.205 17.5107C414.392 17.5107 414.392 17.5107 414.517 17.6354H414.642C414.642 17.5107 414.642 17.5731 414.579 17.4484L414.829 17.3861L414.891 17.5107ZM415.141 16.4514C414.954 16.3891 414.766 16.3267 414.517 16.3267L414.455 16.2021L414.829 16.0775C414.954 16.0775 415.265 16.2644 415.39 16.3891C415.265 16.3891 415.265 16.3891 415.141 16.4514ZM420.503 21.1874L420.004 21.499C419.879 21.5613 419.879 21.5613 419.817 21.499C419.942 21.312 420.191 21.1874 420.503 21.0627V21.1874ZM419.443 18.4455C419.006 18.6324 419.006 18.6324 418.632 18.8194V18.5078C418.632 18.3832 418.632 18.3832 418.508 18.3832L418.57 18.2585C418.632 18.3209 418.695 18.3209 418.695 18.3832C418.819 18.3832 418.944 18.2585 419.131 18.1962L419.256 17.8846L419.381 17.8223C419.505 17.947 419.505 18.0716 419.63 18.2585L419.443 18.4455ZM424.805 26.3596L424.493 26.1726L424.556 26.048L425.117 26.3596H424.805ZM424.306 24.1785L424.182 24.0539L423.87 23.9916L423.808 24.2409C423.995 24.3655 423.496 24.4278 423.371 24.2409C423.496 24.1785 423.496 24.1785 423.496 24.0539L423.246 23.867C423.122 24.0539 423.122 24.0539 423.184 24.2409L422.872 23.9916L423.184 23.7423C423.184 23.5554 423.122 23.6177 422.997 23.4931C423.246 23.3061 423.184 23.2438 423.433 23.0569C423.496 23.1815 423.496 23.1815 423.371 23.2438C423.433 23.68 423.808 23.68 424.182 23.8046C424.369 23.9916 424.306 24.0539 424.306 24.1785ZM426.052 24.6771L425.74 24.9263C425.491 24.9263 425.429 24.8017 425.366 24.6147C425.491 24.4901 425.491 24.5524 425.491 24.4278C425.74 24.4901 425.74 24.6771 426.052 24.6771ZM425.99 22.683C425.553 22.8699 425.117 22.9945 424.743 22.8699L424.68 22.5583L424.868 22.3091C425.304 22.2467 425.491 22.3714 425.927 22.3714L425.99 22.683ZM426.925 21.6236L426.613 21.5613C426.489 21.6236 426.551 21.7482 426.551 21.8729L426.426 21.9352C426.302 21.8105 426.177 21.7482 425.99 21.7482C425.865 21.8729 425.803 21.9352 425.616 21.9975L425.678 21.8729L425.616 21.499H425.304C425.491 20.8135 426.613 21.4366 426.925 21.499V21.6236ZM426.613 21.0627C426.738 21.1251 426.8 21.1251 426.863 21.2497C426.613 21.312 426.302 21.1874 426.115 21.0627L426.489 20.5642L426.613 21.0627ZM423.62 17.76C423.745 17.8223 423.62 17.8846 423.745 18.0093C423.87 18.1339 424.057 18.0716 424.244 18.2585C424.244 18.4455 424.182 18.4455 424.119 18.5701C423.932 18.4455 423.683 18.1962 423.496 18.0716L423.62 17.76ZM423.995 19.1933L424.493 19.0686L424.431 18.8194L424.556 18.6947L424.68 18.7571L424.556 18.944L424.992 19.0063L425.055 18.8817L424.93 18.6947L425.179 18.8194C425.304 18.944 425.242 19.0063 425.242 19.131L425.429 19.2556C425.616 19.131 425.616 19.0063 425.678 18.8194C425.74 19.0063 425.678 19.131 425.678 19.3802H425.491C425.616 19.4425 425.616 19.4425 425.678 19.5049C425.678 19.5049 425.74 19.5672 425.74 19.6295L425.616 19.8787C425.865 20.128 425.99 20.128 426.239 20.2526L426.551 20.0657C426.676 20.128 426.676 20.128 426.863 20.128L426.676 20.3773L426.8 20.5019H426.302C426.239 20.4396 426.239 20.4396 426.239 20.315C426.052 20.315 425.616 20.128 425.491 20.128C425.242 20.1903 425.242 20.315 424.93 20.315C424.556 20.2526 424.057 19.6918 423.808 19.5049L423.932 19.3802V19.2556C423.808 19.2556 423.808 19.2556 423.683 19.3802C423.558 19.3179 423.558 19.3179 423.496 19.1933C423.745 19.131 423.87 19.0686 423.995 19.1933ZM421.999 14.395C421.563 14.5196 421.5 14.3326 421.064 14.5196C421.189 14.208 421.251 13.9587 421.438 13.7095L421.5 13.8964H421.688V14.0834H421.937C421.999 14.3326 421.937 14.2703 421.999 14.395ZM419.755 13.4602L419.942 13.8341L419.63 13.8964C419.568 13.7718 419.568 13.7718 419.505 13.6472C419.568 13.5225 419.63 13.4602 419.755 13.4602ZM419.193 12.9617L419.256 13.0863C418.944 13.0863 418.882 13.024 418.632 12.8994L418.57 12.7747L419.193 12.9617ZM418.695 13.7718L418.632 13.5225C418.882 13.5225 419.069 13.7095 419.069 13.8964L418.944 13.9587V13.7718H418.695ZM418.321 13.024C418.508 13.0863 418.632 13.1486 418.695 13.3356C418.508 13.3356 418.196 13.3356 418.071 13.1486L418.321 13.024ZM420.69 19.8787C420.69 19.8164 421.126 19.5049 421.251 19.4425C421.5 19.4425 421.688 19.3802 421.875 19.6295L421.625 19.7541L420.752 20.0034L420.69 19.8787ZM419.755 21.0627L419.568 21.499C419.381 21.5613 419.256 21.6859 419.131 21.6236C419.318 21.4366 419.505 21.2497 419.755 21.0627ZM416.575 15.9529C416.637 16.0775 416.575 16.0152 416.637 16.1398L416.138 16.0152C415.951 16.0152 415.951 16.2021 415.764 16.1398L415.577 16.0775L415.951 15.7036C416.138 15.7036 416.325 15.8905 416.575 15.9529ZM415.141 15.4543C415.141 15.2674 415.141 15.2051 415.265 15.0804C415.515 15.0804 415.452 15.0804 415.577 14.9558C415.141 15.7659 413.956 16.1398 413.457 16.763L413.208 16.8253C413.332 16.0775 414.392 15.7036 415.141 15.4543ZM412.023 14.6442C412.272 14.7065 412.459 14.6442 412.771 14.5819V14.7065C412.522 14.7689 412.085 15.0181 411.774 15.2051L411.586 15.0804C411.961 15.0181 411.898 14.8935 412.023 14.6442ZM413.395 18.6324L413.894 18.4455V18.5701L413.395 18.8194V18.6324ZM413.769 18.8817C413.956 18.8817 413.894 18.944 414.143 18.8817L414.205 19.2556C414.081 19.4425 413.894 19.5049 413.582 19.5049C413.519 19.6918 413.395 19.6918 413.395 19.8787H413.27C413.27 19.3802 413.582 19.1933 413.769 18.8817ZM410.402 25.3625L410.464 25.4872C410.028 25.6741 410.09 26.048 410.028 26.3596C409.778 26.4219 409.467 26.1726 409.342 25.9234L409.591 25.8611C409.654 25.9234 409.654 25.9234 409.716 26.048H409.841C409.841 25.7988 409.841 25.6741 410.09 25.4872C410.09 25.3002 409.965 25.2379 409.841 25.3002L409.778 25.1133C409.903 25.2379 410.09 25.3625 410.402 25.3625ZM408.157 22.1221C407.97 22.3714 407.658 22.3714 407.471 22.496V22.6206L407.284 22.5583C407.347 22.3714 407.409 22.2468 407.347 21.9975L407.534 21.8729L408.157 22.1221ZM406.661 19.8787C406.224 19.9411 406.1 19.6295 405.725 19.6918L405.538 19.5672C405.975 19.4425 406.162 19.6295 406.536 19.6918L406.661 19.8787ZM402.92 21.6236L402.67 21.6859V21.5613L402.545 21.499C402.421 21.6236 402.421 21.6859 402.545 21.8105C402.483 21.9975 402.296 22.1844 402.109 22.2467C402.109 22.4337 402.109 22.4337 402.171 22.496L401.984 22.6206C401.735 22.4337 401.485 22.4337 401.298 22.1844L400.987 22.2467C400.924 22.0598 400.8 22.0598 400.675 21.8729V21.7482C400.737 21.6859 400.737 21.6859 400.862 21.6859L400.924 21.312L401.423 21.2497V21.3743C401.61 21.499 401.797 21.4366 401.984 21.6236C402.234 21.499 402.358 21.3743 402.67 21.3743C402.732 21.499 402.732 21.499 402.857 21.5613C402.92 21.5613 402.92 21.499 403.044 21.499L403.107 21.6859C403.107 21.7482 403.044 21.7482 402.92 21.6236ZM398.929 27.419C398.991 27.419 398.991 27.419 399.054 27.5436C399.178 27.4813 399.241 27.419 399.365 27.3566C399.49 27.4813 399.615 27.6059 399.615 27.7929C399.49 27.7929 399.49 27.7929 399.365 27.7929C399.178 27.6682 398.991 27.6059 398.929 27.419ZM398.493 31.2202C398.368 31.3449 398.305 31.2825 398.181 31.3449L398.118 31.0956L398.43 30.9086L398.493 31.0956C398.555 31.1579 398.555 31.1579 398.493 31.2202ZM400.238 23.68L400.425 23.6177C400.488 23.7423 400.488 23.9293 400.488 24.0539C400.301 23.9293 400.238 23.8046 400.238 23.68ZM404.665 27.232C404.416 27.0451 404.229 27.0451 403.917 26.9204C404.042 26.6712 404.229 26.5465 404.478 26.4842C404.541 26.6089 404.541 26.6089 404.478 26.7335L404.603 26.8581C404.728 27.1074 404.915 26.9204 404.977 27.1697L404.665 27.232ZM405.289 25.9857L405.102 26.048C404.79 25.9857 404.478 25.9234 404.291 25.7988V25.6741L404.416 25.6118C404.603 25.7364 404.728 25.8611 404.915 25.6741C405.04 25.7364 405.039 25.7364 405.039 25.9234C405.227 25.8611 405.164 25.9234 405.164 25.7988L405.351 25.9234L405.289 25.9857ZM406.598 24.7394C406.723 24.6147 406.723 24.5524 406.848 24.5524C406.972 24.6771 406.91 24.6771 407.159 24.6771C406.411 24.9886 405.476 24.6147 404.79 24.7394L404.603 24.6147C405.04 24.1785 405.975 24.4901 406.598 24.7394ZM405.725 24.0539C405.85 24.2409 405.975 24.3032 406.224 24.4278C405.912 24.4278 405.538 24.3655 405.227 24.3032L405.164 24.1162C405.476 24.2409 405.476 24.1162 405.725 24.0539ZM403.73 25.9234L404.167 26.048H403.668L403.73 25.9234ZM403.855 26.2973C403.98 26.4219 403.917 26.4842 404.104 26.5465L403.917 26.7958C403.73 26.8581 403.605 26.7958 403.418 26.6089C403.294 26.6712 403.169 26.6712 403.044 26.7335L402.982 26.5465C403.231 26.3596 403.543 26.4219 403.855 26.2973ZM398.118 28.7899V28.9145C397.744 28.7899 397.557 29.1015 397.37 29.2884C397.183 29.1638 397.121 28.8522 397.121 28.603L397.308 28.6653C397.308 28.7899 397.308 28.7276 397.245 28.8522C397.433 28.7899 397.495 28.6653 397.744 28.6653C397.807 28.5406 397.807 28.4783 397.682 28.416L397.744 28.2914C397.869 28.416 397.869 28.603 398.118 28.7899ZM398.368 25.4249C398.118 25.4872 397.931 25.3625 397.682 25.3002L397.557 25.3625C397.682 25.1756 397.807 25.1133 397.869 24.9263H398.056L398.368 25.4249ZM398.617 23.1192C398.305 22.9322 398.368 22.683 398.118 22.496L398.056 22.3091C398.43 22.496 398.43 22.683 398.617 22.9322V23.1192ZM443.199 34.4607C443.199 34.523 443.199 34.5853 443.261 34.6476C443.261 34.7722 443.261 34.7099 443.448 34.7099C443.823 34.7099 443.885 34.7099 444.197 34.4607C444.321 34.336 444.134 34.336 444.134 34.2114C444.072 34.2114 443.947 34.2114 443.885 34.2114C443.823 34.2114 443.324 34.1491 443.261 34.2114C443.261 34.2737 443.324 34.336 443.324 34.4607H443.199ZM384.276 0H448V46.3007H428.422C427.985 45.8644 427.362 45.6152 426.863 45.5529C426.551 45.4905 425.429 45.5529 424.992 45.5529C424.119 45.5529 424.369 45.7398 424.057 45.3659C423.932 45.2413 423.87 45.2413 423.683 45.179C422.935 44.8051 422.623 44.6181 421.812 45.0543C421.563 45.179 421.688 45.1167 421.5 44.9297C421.438 44.8674 421.251 44.7428 421.189 44.6804C421.126 44.6181 421.189 44.3689 421.002 44.2442C420.877 44.1196 420.628 44.0573 420.441 44.0573C420.253 43.995 420.253 43.8703 420.129 43.7457C419.942 43.5588 419.006 42.8733 418.757 42.9356C418.57 42.9356 418.009 43.0602 417.884 42.9356C417.697 42.6863 417.884 42.4371 417.822 42.1255C417.697 41.627 417.51 41.627 417.136 41.44C416.949 41.3777 417.011 39.9444 416.886 40.0691C416.824 40.0691 416.824 39.9444 416.762 39.7575C416.762 39.7575 416.824 39.4459 416.762 39.3836C416.699 39.3213 416.699 38.7604 416.637 38.6358C416.201 38.1996 416.263 38.1996 416.388 37.6388C416.45 37.3272 416.388 37.0779 416.45 36.8287C416.512 36.5171 416.824 36.4548 417.011 36.2678C417.51 35.7693 417.946 35.8316 418.383 35.4577C418.508 35.3331 418.695 35.2708 418.757 35.1461C419.069 34.7722 419.443 34.523 419.879 34.336C420.004 34.2737 420.378 34.4607 420.628 34.336C420.815 34.2737 420.939 34.1491 421.126 34.1491C421.625 34.2114 421.875 34.336 422.249 34.7099C422.498 34.9592 422.872 35.0838 423.059 35.4577C423.122 35.5823 423.246 35.8939 423.433 35.8316C423.932 35.7693 424.369 36.1432 424.805 36.3301C425.366 36.6417 425.865 36.2678 426.115 35.707C426.052 35.707 425.74 35.52 425.865 35.4577C426.052 35.3331 426.364 35.3331 426.613 35.2084C427.112 35.52 425.927 36.3924 425.927 36.3924C426.052 36.3924 426.115 36.3924 426.239 36.3924C426.302 36.3924 426.426 36.5171 426.489 36.5794C426.551 36.704 426.676 36.704 426.8 36.704C426.987 36.704 427.175 36.704 427.362 36.704C427.362 36.891 427.237 37.0779 427.237 37.3272C427.549 37.2649 427.923 37.0779 428.172 37.2649C428.297 37.3272 428.297 37.4518 428.422 37.5141C428.484 37.5764 428.546 37.5764 428.609 37.5764C428.796 37.6388 428.92 37.8257 429.107 37.9503C429.295 38.0127 429.669 38.0126 429.918 38.0126C430.105 38.0126 430.105 38.075 430.23 37.9503C430.417 37.7634 430.354 37.7011 430.292 37.5141C430.167 37.3272 430.355 37.3272 430.355 37.2025C430.355 37.0779 430.23 37.0779 430.167 37.0779C430.23 37.0779 430.292 37.0156 430.417 37.0156C430.666 37.0779 430.916 37.1402 431.04 36.8287C431.29 37.0156 431.477 36.891 431.726 36.704C431.851 36.5794 432.1 36.6417 432.287 36.5794C432.35 36.5794 432.35 36.5794 432.412 36.5794H432.287C432.412 36.3301 432.724 36.4548 432.973 36.3924L432.786 36.3301L433.036 36.2678C433.098 36.2678 433.223 36.2678 433.285 36.3301C433.597 36.4548 433.846 36.4548 434.158 36.4548C434.22 36.5171 434.345 36.5171 434.407 36.4548C434.657 36.5171 434.47 36.704 434.594 36.9533C434.657 37.1402 434.969 37.2025 435.156 37.2649C435.343 37.2649 435.467 37.3272 435.53 37.2025C435.592 37.1402 435.53 37.0156 435.592 36.9533C435.654 36.891 435.779 36.891 435.842 36.8287C435.966 36.7663 435.966 36.5794 436.091 36.4548C436.278 36.4548 436.527 36.4548 436.714 36.3924C436.714 36.4548 436.714 36.5171 436.714 36.6417C436.714 37.0156 436.839 37.0156 437.213 37.0779C437.213 37.1402 437.213 37.6388 437.338 37.3895C437.4 37.3272 437.338 37.1402 437.338 37.0156V36.891L437.463 36.704C437.525 36.8287 437.525 36.8287 437.587 36.891C437.774 36.891 438.024 36.7663 438.086 36.891C438.149 36.8287 438.273 36.7663 438.398 36.704C438.523 36.704 438.46 36.9533 438.46 36.9533C438.46 37.0156 438.46 37.1402 438.523 37.0779C438.647 37.0779 438.585 36.7663 438.585 36.704C438.647 36.891 438.71 36.891 438.834 36.9533L438.959 36.8287C438.897 36.704 438.897 36.4548 438.834 36.3924L438.959 36.2678C438.959 36.1432 439.021 36.0809 438.959 36.0185L438.834 35.8939L438.959 35.7693L439.209 36.0185C439.333 35.9562 439.396 35.8939 439.458 35.8316L439.209 35.6446L439.707 35.707C439.957 35.8316 440.144 36.0809 440.393 36.1432C440.393 36.2678 440.393 36.2055 440.456 36.2678H440.705C440.767 36.0809 440.705 35.8939 440.643 35.7693C440.518 35.7693 440.456 35.707 440.393 35.6446C440.456 35.5823 440.456 35.5823 440.456 35.4577C440.206 35.3954 440.081 35.3954 440.081 35.5823C439.894 35.52 439.832 35.52 439.707 35.6446L439.458 35.4577H439.77C439.832 35.3331 439.832 35.2084 439.894 35.0838C440.206 35.0215 440.456 35.3954 440.643 35.2708L440.705 35.1461H440.83C440.892 35.2708 440.892 35.2708 440.954 35.3331C441.079 35.3954 441.204 35.3954 441.391 35.3331C441.453 35.2084 441.453 35.1461 441.578 35.0215C441.703 35.0838 441.765 35.1461 441.89 35.0838C441.89 34.9592 441.827 34.8969 441.703 34.8345L441.827 34.8969C441.952 35.0215 442.077 34.8345 442.014 34.7099C442.014 34.6476 442.077 34.6476 442.139 34.6476L442.264 34.336C442.388 34.3983 442.7 34.336 443.012 34.336C442.95 34.2737 443.074 34.1491 443.074 34.1491C443.012 34.0244 442.95 33.8998 443.074 33.7129L443.261 33.6505L443.386 33.7752C443.511 33.7129 443.636 33.6505 443.76 33.5882L443.823 33.4013L443.636 33.2143C443.698 33.0897 443.636 32.9651 443.698 32.8404C443.885 32.8404 444.321 32.5289 444.259 32.4665C444.072 32.4042 443.823 32.4042 443.698 32.4665L443.636 32.7781C443.511 32.5289 443.448 32.4665 443.324 32.4042C443.137 32.4665 443.074 32.5289 443.074 32.6535C442.95 32.6535 442.887 32.6535 442.825 32.6535C442.7 32.5912 442.7 32.4665 442.638 32.4042C442.389 32.4042 442.326 32.0303 441.89 32.155C441.89 32.0303 441.89 32.0926 441.89 31.968C441.765 32.0303 441.765 32.0303 441.64 32.0303C441.703 31.7811 441.64 31.7811 441.64 31.5318C441.765 31.4695 441.765 31.3449 441.827 31.1579C441.765 31.0956 441.703 31.0956 441.703 31.0333C441.89 31.0333 441.952 30.8463 441.952 30.6594C441.827 30.5348 441.765 30.5348 441.64 30.4724L441.827 30.4101C441.89 30.2855 442.014 30.2232 442.077 30.1609L441.89 30.0362C441.703 30.0362 441.64 30.1609 441.578 30.2855L441.017 30.3478V30.4724L440.83 30.2855C440.83 30.2855 440.83 30.1609 440.892 30.0985L440.767 29.8493C440.705 29.9116 440.58 29.9116 440.518 29.9116C440.518 30.0362 440.518 30.0362 440.456 30.0985L440.269 30.0362C440.269 29.7246 440.331 29.6623 440.456 29.4131C440.331 29.3508 440.393 29.2261 440.331 29.1638C440.206 29.1638 440.269 29.1638 440.144 29.1015C440.019 28.9769 440.019 28.7899 439.957 28.6653C439.832 28.416 439.77 28.416 439.957 28.1668L440.081 28.2914C440.081 28.1668 440.081 28.1044 440.019 28.0421C440.081 28.0421 440.081 28.0421 440.144 28.1044L440.393 27.9175C440.269 27.7929 440.206 27.7929 440.144 27.6682C440.206 27.4813 440.331 27.1074 440.331 27.0451C440.206 26.9828 440.081 26.6712 440.019 26.8581C439.957 26.6712 439.894 26.6712 439.832 26.6089C439.894 26.4219 440.019 26.3596 439.894 26.1726C439.77 26.1726 439.707 26.1103 439.707 26.048L438.834 26.235C438.959 25.9857 438.959 25.9857 438.959 25.7364C438.897 25.6741 438.897 25.6741 438.772 25.6741V25.4872C438.647 25.7364 438.71 25.7364 438.585 25.9857L438.398 25.6741H438.273L438.086 25.8611C437.899 25.9857 437.837 25.7364 437.712 26.1103C437.65 25.9857 437.525 25.8611 437.4 25.7988C437.463 25.7364 437.463 25.7988 437.525 25.7364C437.65 25.6118 437.587 25.5495 437.587 25.3002L437.213 25.2379L437.089 25.4249C437.089 25.4872 436.964 25.4872 436.902 25.4872L436.652 25.3625C436.714 25.3002 436.714 25.3002 436.777 25.3625C436.839 25.3002 436.839 25.3002 436.839 25.2379C436.901 25.1756 436.902 25.2379 437.026 25.2379L437.089 25.051C437.463 24.864 437.4 24.6148 437.712 24.4278C437.65 24.3655 437.65 24.4278 437.65 24.3032H437.774C437.587 24.1162 437.213 24.1162 437.4 23.7423C437.338 23.68 437.276 23.7423 437.213 23.68C437.151 23.6177 437.213 23.5554 437.026 23.4931C436.902 23.4931 436.839 23.5554 436.777 23.6177L436.652 23.7423C436.652 23.4931 436.527 23.5554 436.403 23.4931L436.216 23.68C436.091 23.5554 436.029 23.6177 435.904 23.5554L435.966 23.68C435.904 23.7423 435.904 23.7423 435.904 23.8046H435.779C435.779 23.7423 435.779 23.7423 435.779 23.68C435.717 23.6177 435.467 23.6177 435.218 23.68C435.156 23.6177 435.093 23.5554 435.031 23.5554C435.093 23.4931 435.218 23.4308 435.28 23.4308C435.218 23.2438 435.093 23.1192 434.969 22.9322C434.906 22.9945 434.906 22.9945 434.906 23.1192C434.844 23.1815 434.844 23.1815 434.719 23.1192L434.594 23.2438C434.594 23.3061 434.657 23.3061 434.657 23.4308H434.532C434.532 23.0569 434.532 22.9322 434.283 22.683C434.158 22.683 433.971 22.8076 433.846 22.7453C433.722 22.6206 433.659 22.6206 433.534 22.6206C433.472 22.5583 433.472 22.5583 433.472 22.496L434.657 22.5583C434.719 22.6206 434.719 22.5583 434.844 22.496H434.657L434.782 22.4337C434.906 22.2467 434.969 22.1221 435.031 21.9352L435.156 21.9975C435.218 22.1221 435.093 22.2467 435.031 22.3714C435.093 22.3714 435.779 22.4337 435.966 22.3714C436.153 22.3091 436.091 22.1844 436.34 22.1844C436.403 22.1221 436.34 22.1221 436.34 22.0598L436.465 22.1844C436.652 21.8729 436.34 21.7482 436.403 21.499C436.216 21.312 436.029 21.1874 435.966 20.9381C436.029 20.8758 436.029 20.8758 436.091 20.8135L436.216 20.8758C436.153 20.9381 436.091 20.8758 436.091 21.0004C436.34 21.1874 437.151 21.0627 437.463 20.9381C437.525 20.8135 437.587 20.7512 437.587 20.5642L437.774 20.5019C437.712 20.3773 437.587 20.128 437.4 20.0657C437.213 20.0034 436.839 20.0657 436.714 20.128C436.714 20.0657 436.465 20.0657 436.216 20.0034L435.904 19.8164C435.841 19.9411 435.779 19.9411 435.592 19.9411C435.654 19.8164 435.592 19.8164 435.592 19.6918C435.717 19.6918 435.717 19.6295 435.779 19.5672L435.53 19.6295V19.4425C435.592 19.0063 436.153 19.0063 436.278 18.5701C436.278 18.3832 436.216 18.2585 436.153 18.1339C436.153 17.947 436.278 17.76 436.216 17.6977C436.091 17.6977 436.091 17.5731 436.029 17.5107C435.904 17.6977 435.654 17.8846 435.53 17.947L435.467 18.0716C435.467 17.947 435.405 17.947 435.405 17.8846C435.28 17.8846 435.156 17.8223 435.093 17.76L435.218 17.5107C435.093 17.4484 434.969 17.4484 434.844 17.3861L434.969 17.2615C434.906 17.1369 434.719 17.1369 434.657 17.1369C434.657 17.1992 434.594 17.1992 434.532 17.2615L434.22 17.0122C434.283 16.8876 434.407 16.8876 434.345 16.8253C434.158 16.8253 434.22 16.8253 434.158 16.763L433.971 16.8253C433.909 16.9499 433.722 17.1369 433.784 17.3238L433.971 17.1992C433.971 17.3238 433.909 17.3861 433.784 17.4484L433.659 17.3238L433.722 16.8253C433.472 16.7006 433.285 16.7006 433.098 16.6383C433.285 16.5137 433.41 16.3891 433.472 16.2021C433.534 16.1398 433.659 16.1398 433.722 16.0775C433.722 16.0152 433.659 16.0152 433.722 15.9529L433.909 16.0775C434.096 16.0152 434.158 16.0152 434.283 15.8905C434.22 15.8282 434.22 15.8282 434.283 15.7036L434.158 15.6413C434.033 15.6413 433.971 15.7036 433.846 15.6413C433.784 15.4543 433.722 15.3297 433.597 15.2674C433.659 15.1427 433.659 15.1427 433.722 15.0804H433.846C433.846 15.1427 433.846 15.1427 433.909 15.2051C434.033 15.1427 434.033 15.1427 434.096 15.2051C434.158 15.1427 434.158 15.1427 434.22 15.0804C434.283 14.9558 434.22 14.8935 434.22 14.8312H434.096C434.096 14.7688 434.033 14.5819 434.033 14.5819C434.033 14.5196 434.096 14.4573 434.158 14.3326C433.971 14.395 433.846 14.5819 433.722 14.5196L433.846 14.395L433.659 14.2703C433.597 14.3326 433.472 14.395 433.472 14.5196C433.285 14.5196 433.16 14.395 433.223 14.5819C433.16 14.6442 433.16 14.7065 433.16 14.8935L432.973 14.8312C432.724 15.0181 432.849 15.1427 432.973 15.392C432.786 15.392 432.662 15.392 432.599 15.392C432.662 15.3297 432.724 15.2674 432.786 15.2051C432.599 14.8312 432.163 14.5819 431.415 14.2703C431.415 14.1457 431.477 14.0834 431.602 14.0211L431.664 13.8341C431.602 13.7718 431.539 13.7718 431.539 13.7095L431.602 13.4602C431.539 13.3979 431.539 13.3356 431.415 13.3356C431.352 13.3979 431.29 13.5225 431.227 13.5848L431.103 13.3979C431.165 13.3356 431.165 13.3356 431.103 13.2733C431.103 13.024 431.415 12.5878 431.415 12.4632C431.415 12.2762 431.29 12.2762 431.415 12.027C431.352 11.9646 431.352 11.9646 431.29 11.9646L431.477 11.9023C431.227 11.5907 431.04 11.7777 430.853 11.5907C430.604 11.6531 430.417 11.7777 430.167 11.7154C430.167 11.6531 430.167 11.5907 430.105 11.5284L430.23 11.4661C430.23 11.5907 430.23 11.5907 430.292 11.6531C430.542 11.5284 430.853 10.7183 430.916 10.4691C430.853 10.3444 430.791 10.2821 430.666 10.2198V9.97053C430.542 9.90822 430.23 9.97053 430.105 10.0328C429.918 10.1575 429.793 10.5314 429.793 10.656C429.606 10.656 429.544 10.5314 429.419 10.656L429.357 10.5314L429.045 10.5937C429.107 10.7806 428.983 11.2168 428.796 11.3415C428.796 11.5284 428.92 11.5907 429.045 11.7154C428.796 11.84 428.858 12.027 428.858 12.1516C428.733 12.1516 428.671 12.0893 428.609 12.027L428.671 11.7154C428.609 11.2792 427.923 11.4661 427.673 11.4038C427.673 11.3415 427.673 11.3415 427.611 11.2792H427.362C427.299 11.0922 427.486 10.9676 427.362 10.843L427.486 10.7183V10.5937L427.362 10.4691L427.05 10.7806C426.925 11.0922 426.738 11.4661 426.426 11.7154L426.489 11.9646C426.676 11.9023 426.738 11.84 426.925 11.84L426.987 12.027C426.863 12.027 426.8 12.0893 426.676 12.027C426.551 12.0893 426.551 12.1516 426.489 12.2762C426.364 12.2762 426.239 12.2762 426.115 12.2762C426.052 12.2139 426.115 12.1516 426.052 12.0893C425.927 12.027 425.865 12.0893 425.74 12.0893C425.74 11.9646 425.553 11.5907 425.927 11.6531V11.4661L426.115 11.3415C426.177 10.9053 426.364 10.656 426.489 10.2198C426.364 10.0952 426.302 9.90822 426.052 9.78358C426.052 9.65895 426.115 9.65895 426.177 9.59664C426.115 9.472 426.115 9.40969 426.177 9.28506C425.616 9.28506 425.928 9.34737 425.678 9.53432C425.553 9.59664 425.553 9.472 425.429 9.65895C425.304 9.53432 425.491 9.40969 425.429 9.28506C425.366 9.09811 425.179 9.03579 425.117 8.84885C424.868 8.91116 424.805 9.22274 424.68 9.34737C424.618 9.40969 424.68 9.40969 424.556 9.34737L424.493 9.16043C424.556 8.97348 424.618 8.97348 424.743 8.84885C424.68 8.6619 424.743 8.10106 424.68 8.03874C424.556 8.03874 424.556 8.10106 424.431 8.10106C424.431 7.97643 424.431 7.97643 424.369 7.91411C424.244 7.97643 424.306 8.03874 424.244 8.16337C424.182 8.22569 423.932 8.288 423.808 8.41264L423.932 8.72422C423.745 8.78653 423.62 8.59958 423.558 8.47495V8.59958L423.433 8.53727C423.371 8.78653 423.433 8.91116 423.371 9.09811C423.496 9.09811 423.433 9.09811 423.558 9.09811C423.496 9.16043 423.496 9.16043 423.433 9.16043L423.371 9.28506C423.371 9.34737 423.371 9.34737 423.309 9.472C423.184 9.34737 423.184 9.34737 423.246 9.22274C423.122 9.16043 423.059 9.16043 422.997 9.22274L422.935 9.34737C422.997 9.40969 423.059 9.59664 423.059 9.72127C422.997 9.90822 422.872 10.0328 422.81 10.1575L422.935 10.2821C422.748 10.2198 422.623 10.1575 422.436 10.1575C422.436 10.0952 422.373 10.0952 422.311 10.0952C422.249 9.97053 422.311 9.97053 422.186 9.8459L421.937 9.90822C421.937 9.8459 421.937 9.8459 421.999 9.78358L421.937 9.65895C421.875 9.53432 421.875 9.59664 421.75 9.59664C421.688 9.09811 421.313 8.84885 420.939 8.59958L421.002 8.41264L420.628 8.47495C420.69 8.78653 420.44 8.97348 420.316 9.16043C420.129 9.03579 420.129 8.97348 419.879 9.09811L419.817 9.40969C419.879 9.472 420.066 9.59664 420.253 9.65895C420.316 9.59664 420.316 9.59664 420.378 9.53432L420.441 9.72127C420.129 9.78358 420.004 9.59664 419.63 9.72127C419.568 9.65895 419.568 9.59664 419.505 9.72127C419.505 9.59664 419.568 9.59664 419.568 9.472C419.443 9.472 419.443 9.472 419.381 9.59664C419.193 9.53432 419.131 9.472 419.006 9.59664L418.882 9.53432C418.944 9.472 418.944 9.472 419.006 9.472L418.944 9.22274L418.757 9.34737C418.695 9.28506 418.695 9.22274 418.695 9.16043L418.445 9.28506L418.258 9.22274C418.196 9.34737 418.133 9.40969 418.071 9.472C418.133 9.28506 418.133 9.28506 418.071 9.03579C418.009 8.97348 417.946 9.03579 417.822 9.03579L417.759 8.91116C417.697 9.16043 417.759 9.16043 417.759 9.40969L417.51 9.16043L417.323 9.40969C417.198 9.59664 417.011 9.40969 417.074 9.78358C416.949 9.8459 416.886 9.72127 416.762 9.78358L416.637 9.72127C416.637 9.53432 416.762 9.59664 416.762 9.53432C416.824 9.40969 416.762 9.34737 416.699 9.09811L416.325 9.16043L416.263 9.40969C416.201 9.472 415.951 9.59664 415.889 9.65895C415.826 9.53432 415.889 9.53432 415.826 9.40969C415.889 9.34737 415.889 9.40969 416.014 9.472C416.076 9.40969 416.076 9.40969 416.014 9.28506C416.076 9.22274 416.076 9.22274 416.201 9.22274V9.03579C416.512 8.72422 416.325 8.53727 416.575 8.22569C416.512 8.16337 416.512 8.22569 416.45 8.10106L416.575 8.03874C416.325 7.91411 415.951 8.10106 416.014 7.66485C415.951 7.60253 415.889 7.72716 415.764 7.66485C415.639 7.60253 415.702 7.54021 415.515 7.54021C415.452 7.60253 415.39 7.66485 415.328 7.72716L415.265 7.91411C415.203 7.72716 415.141 7.78948 414.954 7.78948L414.829 8.03874C414.642 7.91411 414.642 8.03874 414.455 7.97642L414.579 8.10106C414.579 8.22569 414.517 8.22569 414.517 8.288H414.392C414.33 8.22569 414.33 8.22569 414.33 8.16337C414.205 8.10106 413.894 8.288 413.644 8.41264C413.644 8.35032 413.644 8.22569 413.644 8.16337C413.706 8.10106 413.706 8.03874 413.769 8.03874C413.644 7.91411 413.457 7.78948 413.27 7.72716C413.208 7.78948 413.27 7.78948 413.27 7.91411C413.083 7.85179 413.145 7.72716 413.083 7.66485C413.021 7.60253 412.896 7.60253 412.771 7.60253C412.709 7.72716 412.771 7.85179 412.771 7.97642C412.646 8.03874 412.584 7.97643 412.459 7.91411C412.272 7.78948 412.21 7.91411 412.023 7.91411C411.774 7.91411 411.649 7.60253 411.399 7.60253C411.15 7.54021 411.337 7.78948 411.399 7.91411C411.337 7.97643 411.275 8.03874 411.15 8.03874C411.025 8.16337 410.963 8.22569 411.025 8.288V8.41264C410.963 8.41264 410.901 8.41264 410.776 8.35032V8.47495C410.651 8.47495 410.651 8.53727 410.589 8.59958C410.589 8.53727 410.589 8.53727 410.589 8.47495C410.464 8.35032 409.903 8.41264 409.654 8.41264V8.288C409.778 8.288 410.028 8.16337 410.09 8.10106C410.09 7.91411 409.903 7.78948 409.778 7.60253C409.716 7.66485 409.716 7.66485 409.716 7.78948C409.654 7.78948 409.654 7.85179 409.529 7.78948L409.404 7.91411C409.404 7.97643 409.467 7.97643 409.467 8.10106C409.279 8.03874 409.217 7.91411 409.03 7.72716C408.968 7.85179 408.968 7.85179 408.905 7.91411C408.968 8.03874 409.03 8.10106 409.092 8.16337L408.843 8.288C408.905 8.47495 408.968 8.53727 409.155 8.53727L409.217 8.6619C408.781 8.78653 408.469 8.53727 408.095 8.41264C408.032 8.53727 408.095 8.53727 408.157 8.59958H408.032C407.908 8.35032 407.721 8.22569 407.658 7.97642C407.596 7.97642 407.471 7.97643 407.284 7.91411C407.222 7.78948 407.159 7.72716 407.159 7.72716C407.035 7.60253 407.035 7.29095 406.848 7.54021C406.785 7.54021 406.723 7.54021 406.661 7.4779L406.536 7.54021V7.72716C406.474 7.66485 406.411 7.66485 406.287 7.60253C406.099 7.66485 406.037 7.66485 405.85 7.78948L405.912 7.97642C405.85 8.10106 405.725 8.10106 405.601 8.16337C405.476 7.97643 405.227 7.85179 404.977 7.72716C404.852 7.78948 404.852 7.85179 404.79 7.91411C404.728 7.85179 404.728 7.85179 404.728 7.78948C404.665 7.78948 404.603 7.78948 404.541 7.85179L404.354 7.66485C404.603 7.60253 404.541 7.29095 404.416 7.104C404.167 7.104 404.042 7.41558 404.042 7.66485C404.042 7.72716 404.042 7.72716 404.167 7.78948C404.042 7.91411 403.98 7.85179 403.917 7.85179C403.917 7.91411 403.917 7.91411 403.917 7.97642C403.855 8.10106 404.042 8.16337 404.104 8.288C404.167 8.288 404.167 8.288 404.291 8.288C404.354 8.41264 404.354 8.41264 404.416 8.47495C404.416 8.84885 403.855 8.6619 403.792 8.97348C403.73 9.09811 403.73 9.03579 403.855 9.09811L403.917 9.22274C403.792 9.22274 403.668 9.16043 403.605 9.09811C403.481 9.16043 403.481 9.22274 403.481 9.28506L403.668 9.472C403.73 9.53432 403.668 9.53432 403.668 9.65895L403.792 9.78358C404.042 9.72127 404.291 9.72127 404.416 9.90822C404.416 10.0328 404.354 10.1575 404.229 10.2821C404.042 10.2198 404.042 10.2821 403.917 10.3444V10.4691C403.855 10.5314 403.855 10.4691 403.792 10.4691C403.855 10.5937 403.917 10.5314 403.98 10.5314L404.042 10.7183C403.98 10.7806 403.917 10.7806 403.792 10.7806C403.73 10.9676 403.605 10.9676 403.481 11.0922C403.543 11.1545 403.668 11.2792 403.605 11.4038C403.605 11.5284 403.418 11.5907 403.356 11.7154H403.231C403.231 11.4661 403.231 11.2792 402.92 11.2168L402.795 11.3415C402.67 11.2168 402.608 11.1545 402.545 11.1545C402.483 10.9053 402.421 11.0922 402.296 11.2168C402.234 11.0922 402.109 11.0922 401.984 11.0922L401.86 11.2168L402.047 11.3415C401.922 11.4661 401.735 11.4038 401.61 11.4038C401.61 11.5907 401.672 11.5284 401.735 11.5907C401.735 11.5907 401.797 11.7777 401.797 11.84C401.111 11.9646 400.862 12.7124 401.111 13.024C401.236 12.8994 401.423 12.8371 401.61 12.7124C401.735 12.5878 401.797 12.4632 401.922 12.6501C402.047 12.7747 402.047 13.024 401.922 13.1486C401.922 13.1486 401.672 13.1486 401.61 13.1486C401.361 13.1486 401.298 13.3356 401.049 13.2733V13.3979L400.55 13.2733V13.4602C400.363 13.5225 400.301 13.5225 400.238 13.4602L400.488 13.3979C400.425 13.2733 400.176 13.2733 399.989 13.211L399.864 13.3356C399.864 13.4602 399.927 13.4602 399.802 13.5848C399.864 13.7095 399.927 13.6472 400.051 13.6472V14.0211C399.989 14.0834 399.989 14.0834 399.864 14.0211C399.74 14.0834 399.677 14.208 399.74 14.3326L399.927 14.2703C399.927 14.395 399.864 14.5196 399.802 14.6442L400.051 14.7065C400.051 14.8312 400.051 14.9558 399.989 15.0181C399.989 15.0804 400.051 15.1427 400.114 15.2051L399.989 15.1427C399.802 15.2051 399.552 15.2674 399.428 15.2051C399.365 15.3297 399.428 15.392 399.365 15.4543C399.428 15.5166 399.615 15.579 399.74 15.7036C399.74 15.8282 399.802 15.9529 399.864 16.0775C400.425 16.2644 400.737 15.8282 401.111 16.0152C401.174 16.0775 401.236 16.0775 401.298 16.1398L401.111 16.2021C401.236 16.2644 401.236 16.3267 401.298 16.2021C401.361 16.2644 401.361 16.3267 401.485 16.3891C401.361 16.5137 401.361 16.5137 401.174 16.5137L401.049 16.8253L401.236 16.8876L401.361 16.763C401.423 16.8253 401.485 16.8253 401.548 16.8876C401.61 16.8876 401.61 16.8876 401.672 16.8253C401.797 17.0745 401.984 17.1369 402.109 17.2615C402.109 17.4484 402.171 17.6354 402.358 17.6354C402.421 17.6354 402.483 17.6354 402.608 17.5731L402.795 17.76H402.483C402.483 17.8846 402.545 17.8846 402.608 17.947C402.608 18.0716 402.608 18.0716 402.67 18.1962C402.483 18.2585 402.421 18.1962 402.358 18.1339L402.047 18.3209L402.171 18.4455H402.358C402.358 18.5701 402.421 18.6324 402.421 18.6947C402.483 18.7571 402.608 18.7571 402.732 18.6947C402.732 18.7571 402.732 18.8817 402.795 18.944C402.857 19.0063 402.92 19.0063 402.92 19.0063C402.92 19.131 402.982 19.1933 402.982 19.2556C403.044 19.3179 402.732 19.4425 402.67 19.4425C402.109 19.4425 401.423 19.2556 400.862 19.5049L400.924 19.3179C401.049 19.3179 401.174 19.2556 401.236 19.0686L401.174 18.8817C400.987 18.944 400.987 19.0063 400.8 19.0686V19.2556H400.675C400.675 19.131 400.675 19.0686 400.612 19.0063C400.862 18.8194 401.049 18.5701 400.862 18.2585C400.8 18.1962 401.049 18.0716 400.987 17.947C400.924 17.76 400.051 17.5107 399.677 17.6977C399.428 17.8223 399.241 17.947 399.054 18.1339C399.054 18.0716 398.991 18.0716 398.991 18.0093C399.054 17.8846 399.054 17.8223 398.929 17.6977C398.867 17.6354 398.804 17.6354 398.742 17.6354C398.804 17.5107 398.804 17.5107 398.804 17.3861C398.929 17.3861 398.991 17.3238 399.054 17.2615C398.991 17.0122 398.991 16.9499 398.742 16.8876V16.763H399.054C399.116 16.576 399.116 16.3891 399.116 16.2021C398.991 16.1398 398.617 16.5137 398.617 16.7006C398.493 16.763 398.368 16.7006 398.243 16.7006L398.118 16.5137L397.931 16.576C397.869 16.7006 397.807 16.8253 397.682 16.8876L397.744 17.0745L397.682 17.1992C397.37 17.3238 397.308 17.1992 397.058 17.0122C396.996 17.2615 396.871 17.6977 396.934 17.8846L396.622 17.947C396.56 18.0716 396.622 18.0716 396.622 18.1962C396.56 18.2585 396.497 18.2585 396.435 18.3209C396.31 18.2585 396.248 18.1962 396.123 18.1339C396.061 18.2585 396.123 18.3832 396.123 18.4455C396.061 18.5078 395.936 18.5701 395.811 18.5701C395.687 18.6947 395.687 18.8194 395.749 19.0063C395.749 19.0686 395.811 19.0686 395.874 19.131L395.749 19.3179L395.624 19.5672V19.3802C395.562 19.3802 395.562 19.3802 395.437 19.4425C395.375 19.3802 395.375 19.3179 395.375 19.1933C395.25 19.0686 395.063 19.0686 394.876 19.0686L394.814 19.3179C394.876 19.3802 394.814 19.3802 394.938 19.3802C395.001 19.6918 395.126 19.8787 395.25 20.128V20.315L395.188 20.5019C395.063 20.5642 395.001 20.5642 394.938 20.6889L395.126 20.8135L395.063 21.0004L394.938 20.8758C394.876 20.8758 394.814 20.8758 394.689 20.8758L394.627 21.0004V21.1251C394.564 21.0627 394.627 21.0627 394.564 21.0004C394.502 20.9381 394.253 20.9381 394.128 20.8135L394.003 20.9381C394.066 21.0627 394.066 21.1251 394.19 21.1251C394.128 21.1874 393.878 21.1251 393.816 21.1874C393.754 21.2497 393.878 21.2497 393.941 21.2497C394.003 21.2497 394.253 21.1874 394.19 21.312C394.128 21.4366 394.066 21.5613 394.003 21.6236C394.128 21.6859 394.003 21.9352 393.941 22.1221C394.003 22.1844 393.941 22.1844 394.066 22.1844L394.003 22.3091H393.754C393.691 22.2467 393.504 22.1844 393.38 22.2467C393.13 22.3714 393.567 22.4337 393.691 22.4337C393.691 22.7453 393.691 22.8699 393.878 22.9322C393.878 23.0569 394.003 23.3684 394.066 23.5554C393.941 23.6177 393.691 23.6177 393.629 23.7423C393.567 23.8046 393.567 23.9293 393.504 23.9916C393.442 23.9916 393.317 23.9293 393.255 23.9916C393.13 24.0539 393.13 24.1785 393.13 24.3655V24.4901C393.068 24.4901 393.006 24.5524 392.881 24.5524C393.006 24.6771 393.006 24.7394 393.006 24.864C393.13 24.9263 393.13 24.864 393.193 24.9886C393.068 25.1133 393.006 25.2379 393.006 25.3625C392.943 25.5495 392.881 25.7364 392.756 25.9234C392.694 26.048 392.694 25.9857 392.569 25.9857C392.507 25.9857 392.507 25.9857 392.444 26.048C391.946 26.3596 391.509 27.0451 391.696 27.4813C391.634 27.5436 391.634 27.6059 391.634 27.7305L391.758 27.9798L391.571 28.1044C391.571 28.0421 391.509 27.9798 391.384 27.9175H391.26C391.322 27.7305 391.384 27.6059 391.322 27.4813C391.073 27.419 390.823 27.1074 390.886 26.9204H390.511L390.449 27.0451C390.262 26.9828 390.262 27.1074 390.075 27.1697C390.013 27.0451 389.763 26.7335 389.576 26.6712C389.451 26.6089 389.14 26.6712 389.015 26.7958L389.14 26.9828C389.015 27.1074 389.015 27.1697 389.015 27.2943C389.202 27.5436 389.763 28.1668 390.013 28.1668C390.137 28.0421 390.075 28.0421 390.075 27.9798H390.2C390.2 28.0421 390.2 28.1044 390.2 28.1668C389.95 28.2914 389.763 28.2914 389.514 28.3537C389.451 28.5406 389.14 28.4783 389.015 28.7899L389.202 28.9145C389.14 28.9769 389.14 28.9145 389.14 29.0392C389.327 29.2261 389.202 29.2884 389.327 29.4131C389.451 29.6 390.013 29.9739 390.075 30.0362C390.075 29.9116 390.075 29.787 390.2 29.7246H390.324C390.262 29.9116 390.262 30.0985 390.262 30.2855C390.574 30.3478 390.761 30.3478 390.948 30.2232C391.073 30.2855 391.135 30.4101 391.135 30.4724C391.073 30.5348 391.073 30.4724 391.01 30.5971C391.135 30.6594 391.322 30.9086 391.384 31.0333C391.322 31.1579 391.26 31.0956 391.197 31.1579C391.135 31.0956 391.073 31.0333 391.01 31.0333C390.948 31.0956 390.948 31.0956 390.886 31.0956C390.699 31.0333 390.699 30.9086 390.574 30.784C390.137 30.8463 390.137 30.9087 389.95 31.3449L390.013 31.5318C390.137 31.5318 390.449 31.4695 390.511 31.3449L390.886 31.4695L390.948 31.7811C390.948 31.7811 390.574 32.0927 390.574 32.155C390.449 32.0927 390.387 32.155 390.262 32.155C390.137 32.3419 390.137 32.5289 390.137 32.6535C390.262 32.8404 390.324 32.9651 390.511 33.152C390.449 33.2143 390.449 33.2143 390.449 33.339C390.698 33.4636 390.886 33.4636 391.135 33.4636C391.26 33.7129 391.509 33.7752 391.758 33.7752C391.696 33.7752 391.634 33.8375 391.571 33.8998C391.447 33.9621 391.447 34.1491 391.509 34.2114C391.634 34.3983 391.821 34.4607 391.946 34.5853C391.946 34.5853 392.008 34.6476 392.008 34.7099C392.008 34.8345 392.008 34.8969 392.07 34.9592C392.07 35.0215 392.008 35.0838 392.008 35.0838C391.883 35.1461 391.883 35.2084 391.758 35.1461C391.696 35.0838 391.634 34.8969 391.634 34.7722C391.509 34.523 391.322 34.4607 391.135 34.5853C391.073 34.6476 391.135 35.3331 391.322 35.4577C391.509 35.5823 391.821 35.5823 391.946 35.8316C391.758 35.8316 391.634 35.8939 391.509 35.9562C391.197 36.0809 391.073 35.8316 390.761 36.0809C390.449 36.2678 390.387 36.3924 390.324 36.7663C390.324 36.8287 390.262 36.8287 390.262 36.891C390.137 36.7663 390.013 36.7663 389.826 36.891C389.888 37.0779 389.888 37.0779 389.95 37.0779C389.826 37.2025 389.826 37.2025 389.95 37.3272C390.013 37.3895 390.2 37.5764 390.262 37.5764C390.636 37.7634 390.886 38.0126 391.197 38.0126C391.509 38.075 391.571 37.888 391.758 37.8257C391.883 37.8257 392.32 38.0126 392.507 38.0126C392.507 38.1373 392.507 38.1373 392.569 38.1996H393.068L393.006 38.0126L393.193 37.8257C393.006 37.7634 393.006 37.7634 392.818 37.7011L392.507 37.888L392.382 37.8257C392.569 37.888 392.631 37.7634 393.006 37.5764C393.193 37.3272 393.193 37.1402 393.38 36.9533C393.567 37.1402 393.816 37.3895 394.003 37.3895C394.128 37.3895 394.19 37.4518 394.315 37.4518C394.502 37.5141 394.689 37.4518 394.751 37.5141C394.876 37.6388 394.876 37.888 394.689 37.888C394.564 37.888 394.066 37.7634 393.941 37.888C393.816 38.1373 394.253 38.3866 394.44 38.3866C394.253 38.3866 394.315 38.5112 394.377 38.6358C394.876 39.259 395.749 39.4459 396.435 39.1967C396.747 39.072 396.996 39.0097 397.245 38.7604C397.308 38.7604 397.433 38.7604 397.495 38.7604C397.557 38.7604 397.62 38.8228 397.744 38.8851L397.994 39.0097C397.557 39.072 397.869 39.3213 397.931 39.5082C397.994 39.7575 397.931 39.8198 398.243 39.8198C398.368 39.8198 398.368 39.8821 398.493 39.8198C398.493 39.9444 398.555 40.0068 398.617 40.0068C398.617 40.0068 398.68 40.0068 398.742 40.0068C398.742 40.0068 398.929 39.6952 398.742 39.5082C398.804 39.4459 398.929 39.3213 398.991 39.3213C399.116 39.259 399.241 39.3213 399.303 39.4459C399.303 39.4459 399.365 39.3836 399.365 39.259C399.615 39.3213 399.802 39.1967 400.051 38.8851C400.051 38.8851 400.176 38.7604 400.176 38.6981C400.176 38.5735 399.864 38.4489 399.74 38.4489C400.114 38.3865 400.425 37.5141 400.675 37.4518C400.737 37.4518 400.862 37.4518 400.924 37.5141C400.987 37.5764 400.114 38.3242 400.675 38.5112C400.737 38.5112 400.8 38.3865 400.862 38.3242C401.049 38.1373 400.987 38.1373 401.174 38.2619C401.298 38.3242 401.236 38.3242 401.361 38.1996C401.86 37.8257 402.483 38.1373 402.795 37.8257C402.857 37.7634 403.169 37.1402 403.169 36.9533C403.169 36.8287 403.107 36.5171 403.044 36.4548C402.92 36.3924 402.732 36.3301 402.545 36.3924C402.483 36.3924 402.421 36.3301 402.483 36.2678C402.732 36.0185 402.982 35.707 403.294 35.52C403.418 35.4577 403.543 35.52 403.73 35.3954C404.354 34.9592 404.665 34.6476 405.414 34.523C406.224 34.3983 406.972 34.7722 407.783 35.0215C408.032 35.0838 408.219 35.0838 408.469 35.2708C408.656 35.3954 408.905 35.3954 409.092 35.52C409.529 35.8316 409.654 35.9562 410.152 36.0185C410.464 36.0185 410.464 36.1432 410.714 36.2678C411.025 36.4548 411.399 36.3924 411.586 36.704C411.774 36.891 412.023 37.0779 412.148 37.3272C412.272 37.5764 412.397 37.888 412.522 38.1373C412.709 38.3865 412.646 38.5112 412.522 38.7604C412.459 38.8851 412.459 39.072 412.459 39.259C412.459 39.3213 412.459 39.3836 412.459 39.5705V39.9444C412.397 40.1937 412.584 40.7545 412.397 40.8792C412.21 41.0661 412.397 42.0632 412.397 42.2501C412.397 42.4994 411.961 42.9979 411.961 43.2472C411.961 43.4341 411.961 43.3718 411.836 43.5588C411.399 44.1819 411.337 44.2442 410.714 44.4935C410.527 44.5558 410.277 44.6804 410.09 44.8051C409.903 44.8674 409.778 44.8674 409.591 44.8674C409.404 44.8674 409.342 44.992 409.217 45.0543C408.781 45.3036 408.469 44.8674 408.032 44.8674C407.908 44.8674 407.658 45.0543 407.471 45.1167C407.097 45.179 406.785 45.1167 406.536 45.4282C406.474 45.5529 406.411 45.6775 406.224 45.6775C405.164 45.6775 404.042 45.6152 402.982 45.6775C402.358 45.6775 401.797 45.9891 401.298 46.4253H384.214V0H384.276Z" fill="#7AB83F"/>
</svg>
